M48
; DRILL file {KiCad 7.0.9} date Fri Dec  1 18:07:24 2023
; FORMAT={-:-/ absolute / inch / decimal}
; #@! TF.CreationDate,2023-12-01T18:07:24+01:00
; #@! TF.GenerationSoftware,Kicad,Pcbnew,7.0.9
; #@! TF.FileFunction,Plated,1,2,PTH
FMAT,2
INCH
; #@! TA.AperFunction,Plated,PTH,ComponentDrill
T1C0.0300
; #@! TA.AperFunction,Plated,PTH,ComponentDrill
T2C0.0320
; #@! TA.AperFunction,Plated,PTH,ComponentDrill
T3C0.0394
%
G90
G05
T1
X4.4Y-2.5457
X4.4Y-2.6457
X4.4Y-2.7457
X4.4Y-2.8457
X4.4Y-2.9457
T2
X2.35Y-3.9
X2.35Y-4.1
X2.65Y-3.9
X2.65Y-4.1
X3.05Y-3.9
X3.05Y-4.1
X3.35Y-3.9
X3.35Y-4.1
X3.75Y-3.3
X3.75Y-3.5
X3.75Y-3.9
X3.75Y-4.1
X4.05Y-3.3
X4.05Y-3.5
X4.05Y-3.9
X4.05Y-4.1
T3
X2.4575Y-2.4827
X2.5575Y-2.4827
X2.6575Y-2.4827
X2.7575Y-2.4827
X2.9Y-2.7
X2.9Y-2.8
X2.9Y-2.9
X2.9Y-3.0
X2.9Y-3.1
X2.9Y-3.2
X2.9Y-3.3
X2.9Y-3.4
X2.9Y-3.5
X2.9Y-3.6
X2.9Y-3.7
X2.9Y-3.8
X2.9Y-3.9
X2.9Y-4.0
X2.9Y-4.1
X3.5Y-2.7
X3.5Y-2.8
X3.5Y-2.9
X3.5Y-3.0
X3.5Y-3.1
X3.5Y-3.2
X3.5Y-3.3
X3.5Y-3.4
X3.5Y-3.5
X3.5Y-3.6
X3.5Y-3.7
X3.5Y-3.8
X3.5Y-3.9
X3.5Y-4.0
X3.5Y-4.1
T0
M30
