%TF.GenerationSoftware,KiCad,Pcbnew,7.0.9*%
%TF.CreationDate,2023-12-01T18:07:20+01:00*%
%TF.ProjectId,MusicControllerPCB,4d757369-6343-46f6-9e74-726f6c6c6572,rev?*%
%TF.SameCoordinates,Original*%
%TF.FileFunction,Legend,Bot*%
%TF.FilePolarity,Positive*%
%FSLAX46Y46*%
G04 Gerber Fmt 4.6, Leading zero omitted, Abs format (unit mm)*
G04 Created by KiCad (PCBNEW 7.0.9) date 2023-12-01 18:07:20*
%MOMM*%
%LPD*%
G01*
G04 APERTURE LIST*
%ADD10C,0.150000*%
%ADD11C,0.120000*%
G04 APERTURE END LIST*
D10*
X56601906Y-67556594D02*
X57078096Y-67556594D01*
X57078096Y-67556594D02*
X57078096Y-66556594D01*
X55840001Y-67508975D02*
X55935239Y-67556594D01*
X55935239Y-67556594D02*
X56125715Y-67556594D01*
X56125715Y-67556594D02*
X56220953Y-67508975D01*
X56220953Y-67508975D02*
X56268572Y-67461355D01*
X56268572Y-67461355D02*
X56316191Y-67366117D01*
X56316191Y-67366117D02*
X56316191Y-67080403D01*
X56316191Y-67080403D02*
X56268572Y-66985165D01*
X56268572Y-66985165D02*
X56220953Y-66937546D01*
X56220953Y-66937546D02*
X56125715Y-66889927D01*
X56125715Y-66889927D02*
X55935239Y-66889927D01*
X55935239Y-66889927D02*
X55840001Y-66937546D01*
X55363810Y-67556594D02*
X55173334Y-67556594D01*
X55173334Y-67556594D02*
X55078096Y-67508975D01*
X55078096Y-67508975D02*
X55030477Y-67461355D01*
X55030477Y-67461355D02*
X54935239Y-67318498D01*
X54935239Y-67318498D02*
X54887620Y-67128022D01*
X54887620Y-67128022D02*
X54887620Y-66747070D01*
X54887620Y-66747070D02*
X54935239Y-66651832D01*
X54935239Y-66651832D02*
X54982858Y-66604213D01*
X54982858Y-66604213D02*
X55078096Y-66556594D01*
X55078096Y-66556594D02*
X55268572Y-66556594D01*
X55268572Y-66556594D02*
X55363810Y-66604213D01*
X55363810Y-66604213D02*
X55411429Y-66651832D01*
X55411429Y-66651832D02*
X55459048Y-66747070D01*
X55459048Y-66747070D02*
X55459048Y-66985165D01*
X55459048Y-66985165D02*
X55411429Y-67080403D01*
X55411429Y-67080403D02*
X55363810Y-67128022D01*
X55363810Y-67128022D02*
X55268572Y-67175641D01*
X55268572Y-67175641D02*
X55078096Y-67175641D01*
X55078096Y-67175641D02*
X54982858Y-67128022D01*
X54982858Y-67128022D02*
X54935239Y-67080403D01*
X54935239Y-67080403D02*
X54887620Y-66985165D01*
X81994285Y-109389104D02*
X81518095Y-109389104D01*
X82089523Y-109674819D02*
X81756190Y-108674819D01*
X81756190Y-108674819D02*
X81422857Y-109674819D01*
X80565714Y-109674819D02*
X81137142Y-109674819D01*
X80851428Y-109674819D02*
X80851428Y-108674819D01*
X80851428Y-108674819D02*
X80946666Y-108817676D01*
X80946666Y-108817676D02*
X81041904Y-108912914D01*
X81041904Y-108912914D02*
X81137142Y-108960533D01*
X80018095Y-69125180D02*
X80018095Y-68315657D01*
X80018095Y-68315657D02*
X80065714Y-68220419D01*
X80065714Y-68220419D02*
X80113333Y-68172800D01*
X80113333Y-68172800D02*
X80208571Y-68125180D01*
X80208571Y-68125180D02*
X80399047Y-68125180D01*
X80399047Y-68125180D02*
X80494285Y-68172800D01*
X80494285Y-68172800D02*
X80541904Y-68220419D01*
X80541904Y-68220419D02*
X80589523Y-68315657D01*
X80589523Y-68315657D02*
X80589523Y-69125180D01*
X81018095Y-68172800D02*
X81160952Y-68125180D01*
X81160952Y-68125180D02*
X81399047Y-68125180D01*
X81399047Y-68125180D02*
X81494285Y-68172800D01*
X81494285Y-68172800D02*
X81541904Y-68220419D01*
X81541904Y-68220419D02*
X81589523Y-68315657D01*
X81589523Y-68315657D02*
X81589523Y-68410895D01*
X81589523Y-68410895D02*
X81541904Y-68506133D01*
X81541904Y-68506133D02*
X81494285Y-68553752D01*
X81494285Y-68553752D02*
X81399047Y-68601371D01*
X81399047Y-68601371D02*
X81208571Y-68648990D01*
X81208571Y-68648990D02*
X81113333Y-68696609D01*
X81113333Y-68696609D02*
X81065714Y-68744228D01*
X81065714Y-68744228D02*
X81018095Y-68839466D01*
X81018095Y-68839466D02*
X81018095Y-68934704D01*
X81018095Y-68934704D02*
X81065714Y-69029942D01*
X81065714Y-69029942D02*
X81113333Y-69077561D01*
X81113333Y-69077561D02*
X81208571Y-69125180D01*
X81208571Y-69125180D02*
X81446666Y-69125180D01*
X81446666Y-69125180D02*
X81589523Y-69077561D01*
X82351428Y-68648990D02*
X82494285Y-68601371D01*
X82494285Y-68601371D02*
X82541904Y-68553752D01*
X82541904Y-68553752D02*
X82589523Y-68458514D01*
X82589523Y-68458514D02*
X82589523Y-68315657D01*
X82589523Y-68315657D02*
X82541904Y-68220419D01*
X82541904Y-68220419D02*
X82494285Y-68172800D01*
X82494285Y-68172800D02*
X82399047Y-68125180D01*
X82399047Y-68125180D02*
X82018095Y-68125180D01*
X82018095Y-68125180D02*
X82018095Y-69125180D01*
X82018095Y-69125180D02*
X82351428Y-69125180D01*
X82351428Y-69125180D02*
X82446666Y-69077561D01*
X82446666Y-69077561D02*
X82494285Y-69029942D01*
X82494285Y-69029942D02*
X82541904Y-68934704D01*
X82541904Y-68934704D02*
X82541904Y-68839466D01*
X82541904Y-68839466D02*
X82494285Y-68744228D01*
X82494285Y-68744228D02*
X82446666Y-68696609D01*
X82446666Y-68696609D02*
X82351428Y-68648990D01*
X82351428Y-68648990D02*
X82018095Y-68648990D01*
%TO.C,G\u002A\u002A\u002A*%
G36*
X54276337Y-64014862D02*
G01*
X54274920Y-64111887D01*
X54272217Y-64192205D01*
X54268136Y-64251588D01*
X54262587Y-64285808D01*
X54260020Y-64292223D01*
X54238373Y-64306849D01*
X54203135Y-64297557D01*
X54157146Y-64267138D01*
X54103245Y-64218379D01*
X54044273Y-64154069D01*
X53983070Y-64076997D01*
X53922474Y-63989951D01*
X53865327Y-63895719D01*
X53857313Y-63881244D01*
X53813692Y-63790321D01*
X53783581Y-63699148D01*
X53765484Y-63599966D01*
X53757903Y-63485019D01*
X53759153Y-63364604D01*
X53841185Y-63364604D01*
X53842380Y-63497439D01*
X53866622Y-63626595D01*
X53915379Y-63756519D01*
X53990114Y-63891662D01*
X54092294Y-64036473D01*
X54096413Y-64041796D01*
X54132188Y-64085916D01*
X54160368Y-64117128D01*
X54175165Y-64128968D01*
X54185592Y-64113856D01*
X54193185Y-64071054D01*
X54197702Y-64004949D01*
X54198976Y-63919933D01*
X54196840Y-63820396D01*
X54191125Y-63710729D01*
X54185140Y-63605881D01*
X54180074Y-63487500D01*
X54176589Y-63372094D01*
X54175214Y-63274207D01*
X54174870Y-63070935D01*
X54123090Y-63063335D01*
X54073552Y-63061488D01*
X53989804Y-63081732D01*
X53915256Y-63128940D01*
X53890604Y-63154345D01*
X53872557Y-63185524D01*
X53859814Y-63229787D01*
X53848596Y-63296638D01*
X53841185Y-63364604D01*
X53759153Y-63364604D01*
X53759341Y-63346548D01*
X53763288Y-63267554D01*
X53772626Y-63182989D01*
X53788710Y-63120554D01*
X53813960Y-63074504D01*
X53850793Y-63039092D01*
X53901630Y-63008574D01*
X53920238Y-63000022D01*
X53982830Y-62981201D01*
X54050164Y-62972225D01*
X54115051Y-62972689D01*
X54170301Y-62982187D01*
X54208723Y-63000316D01*
X54223128Y-63026670D01*
X54224624Y-63038097D01*
X54236027Y-63051197D01*
X54239756Y-63056091D01*
X54246202Y-63087598D01*
X54252271Y-63144686D01*
X54257871Y-63223127D01*
X54262914Y-63318691D01*
X54267306Y-63427150D01*
X54270957Y-63544275D01*
X54273777Y-63665838D01*
X54275675Y-63787609D01*
X54276558Y-63905360D01*
X54276529Y-63919933D01*
X54276337Y-64014862D01*
G37*
G36*
X58001555Y-63504058D02*
G01*
X57992452Y-63616073D01*
X57972602Y-63713516D01*
X57940508Y-63804145D01*
X57894673Y-63895719D01*
X57871740Y-63935674D01*
X57796750Y-64053050D01*
X57720112Y-64150619D01*
X57635046Y-64237299D01*
X57587102Y-64277756D01*
X57544958Y-64300801D01*
X57515810Y-64296227D01*
X57496655Y-64263318D01*
X57484490Y-64201356D01*
X57482278Y-64168345D01*
X57481124Y-64108026D01*
X57481243Y-64027405D01*
X57482485Y-63930855D01*
X57482866Y-63912263D01*
X57560650Y-63912263D01*
X57560690Y-63985886D01*
X57563254Y-64036473D01*
X57568752Y-64076745D01*
X57577026Y-64114422D01*
X57584835Y-64128968D01*
X57584961Y-64128964D01*
X57600559Y-64116372D01*
X57629423Y-64083752D01*
X57666624Y-64037436D01*
X57707232Y-63983756D01*
X57746317Y-63929045D01*
X57778950Y-63879633D01*
X57845090Y-63757021D01*
X57897836Y-63606745D01*
X57919724Y-63454237D01*
X57911403Y-63296638D01*
X57901048Y-63233972D01*
X57888554Y-63188320D01*
X57871046Y-63156478D01*
X57844744Y-63128940D01*
X57802758Y-63098202D01*
X57721684Y-63066419D01*
X57636910Y-63063335D01*
X57585130Y-63070935D01*
X57584786Y-63274207D01*
X57583462Y-63369876D01*
X57580014Y-63485071D01*
X57574975Y-63603536D01*
X57568875Y-63710729D01*
X57567520Y-63731998D01*
X57562979Y-63824625D01*
X57560650Y-63912263D01*
X57482866Y-63912263D01*
X57484700Y-63822748D01*
X57487740Y-63707457D01*
X57491455Y-63589355D01*
X57495696Y-63472813D01*
X57500312Y-63362205D01*
X57505155Y-63261902D01*
X57510075Y-63176277D01*
X57514923Y-63109703D01*
X57519549Y-63066552D01*
X57523803Y-63051197D01*
X57529893Y-63048353D01*
X57536871Y-63026670D01*
X57538568Y-63016975D01*
X57561798Y-62993324D01*
X57606642Y-62978034D01*
X57665911Y-62971509D01*
X57732416Y-62974154D01*
X57798965Y-62986374D01*
X57858370Y-63008574D01*
X57896956Y-63030606D01*
X57937333Y-63064130D01*
X57965474Y-63106740D01*
X57983795Y-63164182D01*
X57994717Y-63242203D01*
X58000659Y-63346548D01*
X58001408Y-63369716D01*
X58001500Y-63454237D01*
X58001555Y-63504058D01*
G37*
G36*
X55715575Y-64504175D02*
G01*
X55714075Y-64546138D01*
X55700380Y-64581637D01*
X55670487Y-64626039D01*
X55655219Y-64648178D01*
X55624852Y-64708096D01*
X55612331Y-64771154D01*
X55616769Y-64845761D01*
X55637278Y-64940326D01*
X55656882Y-65020312D01*
X55668359Y-65084309D01*
X55669308Y-65125506D01*
X55660156Y-65147756D01*
X55654410Y-65151798D01*
X55626444Y-65158480D01*
X55622094Y-65158159D01*
X55591014Y-65148075D01*
X55553996Y-65128932D01*
X55523008Y-65107653D01*
X55510019Y-65091158D01*
X55507724Y-65087212D01*
X55485807Y-65067395D01*
X55445655Y-65036762D01*
X55393394Y-65000097D01*
X55389337Y-64997331D01*
X55318798Y-64944468D01*
X55245355Y-64882354D01*
X55184275Y-64823854D01*
X55142554Y-64779248D01*
X55113614Y-64743586D01*
X55098495Y-64713389D01*
X55092711Y-64679368D01*
X55091780Y-64632233D01*
X55092598Y-64622749D01*
X55176910Y-64622749D01*
X55187155Y-64650485D01*
X55214719Y-64688288D01*
X55263088Y-64741672D01*
X55267440Y-64746216D01*
X55326209Y-64803072D01*
X55389973Y-64858436D01*
X55445674Y-64900920D01*
X55534148Y-64961216D01*
X55528497Y-64817779D01*
X55528196Y-64809685D01*
X55528560Y-64715324D01*
X55538253Y-64645466D01*
X55558776Y-64593841D01*
X55591630Y-64554182D01*
X55592054Y-64553797D01*
X55605394Y-64538472D01*
X55613397Y-64517675D01*
X55616756Y-64484759D01*
X55616165Y-64433072D01*
X55612318Y-64355964D01*
X55611506Y-64342325D01*
X55603122Y-64247859D01*
X55591240Y-64181711D01*
X55575289Y-64140558D01*
X55547984Y-64095847D01*
X55444156Y-64196860D01*
X55401680Y-64242576D01*
X55344636Y-64314532D01*
X55288529Y-64394996D01*
X55238577Y-64475927D01*
X55199996Y-64549284D01*
X55178005Y-64607028D01*
X55176910Y-64622749D01*
X55092598Y-64622749D01*
X55098737Y-64551569D01*
X55121397Y-64482243D01*
X55136918Y-64453048D01*
X55166813Y-64396778D01*
X55197806Y-64338407D01*
X55217209Y-64305919D01*
X55261073Y-64245480D01*
X55314905Y-64181361D01*
X55372974Y-64119536D01*
X55429547Y-64065977D01*
X55478893Y-64026658D01*
X55515280Y-64007553D01*
X55559371Y-64002665D01*
X55609670Y-64019452D01*
X55647821Y-64064346D01*
X55674407Y-64138126D01*
X55690009Y-64241571D01*
X55690902Y-64251764D01*
X55698085Y-64330033D01*
X55705607Y-64406797D01*
X55711979Y-64466777D01*
X55713708Y-64484759D01*
X55715575Y-64504175D01*
G37*
G36*
X56668220Y-64632233D02*
G01*
X56667520Y-64675509D01*
X56662406Y-64710397D01*
X56648391Y-64740558D01*
X56620992Y-64775281D01*
X56575725Y-64823854D01*
X56572482Y-64827240D01*
X56510153Y-64886357D01*
X56436439Y-64948265D01*
X56366605Y-65000097D01*
X56343581Y-65015915D01*
X56295663Y-65050577D01*
X56262422Y-65077161D01*
X56249981Y-65090900D01*
X56249920Y-65091563D01*
X56236206Y-65108133D01*
X56205744Y-65130532D01*
X56191317Y-65138807D01*
X56143963Y-65153734D01*
X56108978Y-65145477D01*
X56092099Y-65114829D01*
X56091757Y-65106416D01*
X56096085Y-65066088D01*
X56106799Y-65007831D01*
X56122240Y-64941198D01*
X56137243Y-64876778D01*
X56148048Y-64799658D01*
X56144195Y-64737695D01*
X56124789Y-64682388D01*
X56088932Y-64625236D01*
X56068195Y-64595654D01*
X56049223Y-64558858D01*
X56043816Y-64521001D01*
X56046544Y-64485823D01*
X56143278Y-64485823D01*
X56146749Y-64518340D01*
X56154882Y-64538910D01*
X56168370Y-64554182D01*
X56173171Y-64558668D01*
X56204163Y-64598980D01*
X56223222Y-64651776D01*
X56231839Y-64723327D01*
X56231503Y-64819902D01*
X56230214Y-64853077D01*
X56227975Y-64910583D01*
X56226429Y-64950137D01*
X56225853Y-64964635D01*
X56238078Y-64955707D01*
X56269848Y-64933283D01*
X56314325Y-64902189D01*
X56318268Y-64899411D01*
X56375188Y-64854749D01*
X56439103Y-64798319D01*
X56496912Y-64741641D01*
X56531837Y-64703839D01*
X56565861Y-64661531D01*
X56581418Y-64631100D01*
X56581994Y-64607028D01*
X56566075Y-64562751D01*
X56530492Y-64491958D01*
X56482461Y-64411932D01*
X56427197Y-64330714D01*
X56369919Y-64256343D01*
X56315844Y-64196860D01*
X56212015Y-64095847D01*
X56184711Y-64140558D01*
X56182525Y-64144356D01*
X56167102Y-64188383D01*
X56155678Y-64257812D01*
X56147682Y-64355964D01*
X56147546Y-64358345D01*
X56143775Y-64434708D01*
X56143278Y-64485823D01*
X56046544Y-64485823D01*
X56048021Y-64466777D01*
X56048787Y-64459971D01*
X56055409Y-64396727D01*
X56062974Y-64318834D01*
X56069991Y-64241571D01*
X56080149Y-64164026D01*
X56103606Y-64082031D01*
X56138465Y-64029140D01*
X56185309Y-64004573D01*
X56244720Y-64007553D01*
X56265043Y-64016464D01*
X56310012Y-64048603D01*
X56364445Y-64097313D01*
X56422612Y-64156621D01*
X56478780Y-64220556D01*
X56527218Y-64283142D01*
X56562194Y-64338407D01*
X56583093Y-64377771D01*
X56614235Y-64436398D01*
X56638603Y-64482243D01*
X56659827Y-64544298D01*
X56665814Y-64607028D01*
X56668220Y-64632233D01*
G37*
G36*
X56314207Y-59846738D02*
G01*
X56314132Y-59851260D01*
X56305595Y-59908306D01*
X56285092Y-59984237D01*
X56255727Y-60070578D01*
X56220607Y-60158849D01*
X56182836Y-60240574D01*
X56145520Y-60307273D01*
X56133710Y-60326933D01*
X56099490Y-60400730D01*
X56080523Y-60470373D01*
X56072363Y-60510935D01*
X56052722Y-60580005D01*
X56028499Y-60646321D01*
X56018493Y-60670657D01*
X56008576Y-60698285D01*
X56001040Y-60727319D01*
X55995536Y-60762153D01*
X55991715Y-60807182D01*
X55989226Y-60866803D01*
X55987719Y-60945409D01*
X55986845Y-61047398D01*
X55986254Y-61177163D01*
X55986024Y-61241747D01*
X55985869Y-61358741D01*
X55986406Y-61449954D01*
X55987916Y-61519747D01*
X55990677Y-61572478D01*
X55994970Y-61612507D01*
X56001076Y-61644191D01*
X56009274Y-61671889D01*
X56019844Y-61699962D01*
X56026707Y-61717125D01*
X56049642Y-61774221D01*
X56080126Y-61849882D01*
X56115005Y-61936287D01*
X56151125Y-62025612D01*
X56168383Y-62068918D01*
X56200887Y-62154253D01*
X56228296Y-62231128D01*
X56248141Y-62292480D01*
X56257955Y-62331249D01*
X56263303Y-62361520D01*
X56276694Y-62426624D01*
X56291909Y-62491860D01*
X56304094Y-62550067D01*
X56304112Y-62556020D01*
X56304244Y-62600541D01*
X56284105Y-62630674D01*
X56239903Y-62645248D01*
X56167866Y-62649044D01*
X56061318Y-62649044D01*
X56037351Y-62717410D01*
X56025865Y-62750410D01*
X55988829Y-62861739D01*
X55963506Y-62947774D01*
X55948982Y-63011858D01*
X55944344Y-63057330D01*
X55944196Y-63075375D01*
X55939497Y-63103287D01*
X55921192Y-63113878D01*
X55880000Y-63115542D01*
X55860054Y-63115407D01*
X55829201Y-63111156D01*
X55817495Y-63094596D01*
X55815655Y-63057330D01*
X55815358Y-63047267D01*
X55808275Y-62997344D01*
X55791071Y-62927954D01*
X55762834Y-62835757D01*
X55722649Y-62717410D01*
X55698682Y-62649044D01*
X55592134Y-62649044D01*
X55532180Y-62646719D01*
X55482703Y-62634688D01*
X55458045Y-62608055D01*
X55454432Y-62562039D01*
X55455603Y-62556020D01*
X55558277Y-62556020D01*
X55562478Y-62561668D01*
X55593384Y-62566096D01*
X55653044Y-62562047D01*
X55677194Y-62559553D01*
X55725800Y-62558602D01*
X55760095Y-62569323D01*
X55785614Y-62596599D01*
X55807892Y-62645315D01*
X55832462Y-62720352D01*
X55837394Y-62736149D01*
X55855707Y-62790082D01*
X55870868Y-62827850D01*
X55880000Y-62842078D01*
X55881638Y-62841050D01*
X55892618Y-62819977D01*
X55908878Y-62777287D01*
X55927538Y-62720352D01*
X55937792Y-62687504D01*
X55960804Y-62623361D01*
X55983692Y-62583627D01*
X56011990Y-62563419D01*
X56051233Y-62557854D01*
X56106956Y-62562047D01*
X56141605Y-62565225D01*
X56186439Y-62564835D01*
X56201723Y-62556020D01*
X56201330Y-62544164D01*
X56192027Y-62479490D01*
X56171791Y-62393849D01*
X56142539Y-62293928D01*
X56106188Y-62186412D01*
X56064655Y-62077986D01*
X56052010Y-62046880D01*
X55994821Y-61903106D01*
X55951030Y-61787000D01*
X55920241Y-61697423D01*
X55902059Y-61633235D01*
X55896086Y-61593297D01*
X55892329Y-61568886D01*
X55880000Y-61555187D01*
X55869696Y-61564089D01*
X55863914Y-61593297D01*
X55863692Y-61599185D01*
X55855388Y-61643726D01*
X55834798Y-61712737D01*
X55801525Y-61807358D01*
X55755172Y-61928728D01*
X55695345Y-62077986D01*
X55684821Y-62104205D01*
X55644377Y-62213026D01*
X55609584Y-62319303D01*
X55582358Y-62416352D01*
X55564617Y-62497486D01*
X55558277Y-62556020D01*
X55455603Y-62556020D01*
X55468091Y-62491860D01*
X55476990Y-62454739D01*
X55491637Y-62387214D01*
X55502044Y-62331249D01*
X55505506Y-62315276D01*
X55520606Y-62264419D01*
X55544513Y-62194481D01*
X55574759Y-62112525D01*
X55608875Y-62025612D01*
X55624650Y-61986620D01*
X55660614Y-61897611D01*
X55693956Y-61814950D01*
X55721521Y-61746459D01*
X55740155Y-61699962D01*
X55745397Y-61686550D01*
X55754826Y-61659194D01*
X55762014Y-61630179D01*
X55767240Y-61595147D01*
X55770784Y-61549739D01*
X55772927Y-61489595D01*
X55773948Y-61410357D01*
X55774127Y-61307666D01*
X55773746Y-61177163D01*
X55773279Y-61069895D01*
X55772486Y-60962943D01*
X55771127Y-60880211D01*
X55768852Y-60817304D01*
X55765312Y-60769828D01*
X55760157Y-60733387D01*
X55753036Y-60703586D01*
X55743601Y-60676029D01*
X55731501Y-60646321D01*
X55714062Y-60600306D01*
X55692530Y-60530125D01*
X55679477Y-60470373D01*
X55675949Y-60451547D01*
X55651755Y-60378761D01*
X55614480Y-60307273D01*
X55610699Y-60301265D01*
X55573190Y-60232601D01*
X55535551Y-60149797D01*
X55500886Y-60061331D01*
X55472301Y-59975681D01*
X55452901Y-59901324D01*
X55445792Y-59846738D01*
X55446913Y-59835403D01*
X55545705Y-59835403D01*
X55549299Y-59866239D01*
X55557648Y-59901925D01*
X55586689Y-59994269D01*
X55641314Y-60123160D01*
X55710493Y-60252211D01*
X55720496Y-60269849D01*
X55755078Y-60348480D01*
X55773612Y-60422552D01*
X55777153Y-60444408D01*
X55795267Y-60513696D01*
X55819621Y-60575370D01*
X55831776Y-60601861D01*
X55842364Y-60634240D01*
X55849793Y-60674018D01*
X55854855Y-60727388D01*
X55858340Y-60800543D01*
X55861039Y-60899677D01*
X55862555Y-60953550D01*
X55866020Y-61032685D01*
X55870353Y-61095928D01*
X55875148Y-61137853D01*
X55880000Y-61153034D01*
X55882950Y-61147230D01*
X55887816Y-61115057D01*
X55892377Y-61059456D01*
X55896227Y-60985854D01*
X55898961Y-60899677D01*
X55901239Y-60813163D01*
X55904561Y-60736624D01*
X55909345Y-60680768D01*
X55916382Y-60639403D01*
X55926463Y-60606335D01*
X55940379Y-60575370D01*
X55949301Y-60555826D01*
X55972281Y-60488627D01*
X55986388Y-60422552D01*
X55989033Y-60406057D01*
X56012058Y-60329220D01*
X56049507Y-60252211D01*
X56104334Y-60152350D01*
X56162660Y-60022380D01*
X56202352Y-59901925D01*
X56210476Y-59867396D01*
X56214260Y-59836510D01*
X56212285Y-59803590D01*
X56203509Y-59761494D01*
X56186889Y-59703080D01*
X56161384Y-59621205D01*
X56135233Y-59540926D01*
X56106632Y-59457850D01*
X56080402Y-59386055D01*
X56060004Y-59335301D01*
X56032334Y-59268957D01*
X55999923Y-59183608D01*
X55968442Y-59093874D01*
X55940105Y-59006602D01*
X55917125Y-58928640D01*
X55901715Y-58866835D01*
X55896086Y-58828036D01*
X55895962Y-58821122D01*
X55890674Y-58786418D01*
X55880000Y-58772287D01*
X55878005Y-58772716D01*
X55867991Y-58791042D01*
X55863914Y-58828036D01*
X55859478Y-58861046D01*
X55845084Y-58920542D01*
X55822866Y-58996987D01*
X55795035Y-59083533D01*
X55763805Y-59173332D01*
X55731388Y-59259537D01*
X55699996Y-59335301D01*
X55680843Y-59382786D01*
X55654832Y-59453720D01*
X55626270Y-59536446D01*
X55598616Y-59621205D01*
X55573868Y-59700583D01*
X55556947Y-59759717D01*
X55547907Y-59802277D01*
X55545705Y-59835403D01*
X55446913Y-59835403D01*
X55447768Y-59826764D01*
X55458555Y-59773677D01*
X55476931Y-59701200D01*
X55500837Y-59616089D01*
X55528216Y-59525103D01*
X55557011Y-59434998D01*
X55585162Y-59352532D01*
X55610614Y-59284461D01*
X55631307Y-59237542D01*
X55650342Y-59196783D01*
X55683711Y-59110547D01*
X55716946Y-59009561D01*
X55746889Y-58904418D01*
X55770386Y-58805709D01*
X55784281Y-58724028D01*
X55786986Y-58701193D01*
X55795039Y-58639253D01*
X55802263Y-58591641D01*
X55807359Y-58567188D01*
X55819038Y-58556899D01*
X55852958Y-58548736D01*
X55895395Y-58547729D01*
X55933054Y-58553880D01*
X55952641Y-58567188D01*
X55954060Y-58572380D01*
X55960028Y-58605726D01*
X55967681Y-58659219D01*
X55975719Y-58724028D01*
X55982859Y-58771134D01*
X56002975Y-58864442D01*
X56030771Y-58968329D01*
X56063093Y-59072203D01*
X56096786Y-59165472D01*
X56128693Y-59237542D01*
X56140636Y-59263273D01*
X56164476Y-59323898D01*
X56191820Y-59401554D01*
X56220608Y-59489483D01*
X56248784Y-59580930D01*
X56274289Y-59669135D01*
X56295067Y-59747343D01*
X56309059Y-59808797D01*
X56312819Y-59836510D01*
X56314207Y-59846738D01*
G37*
G36*
X57424086Y-64721827D02*
G01*
X57419685Y-64754226D01*
X57406855Y-64778755D01*
X57383416Y-64805251D01*
X57337690Y-64840949D01*
X57285291Y-64852844D01*
X57282283Y-64852926D01*
X57239313Y-64862109D01*
X57180227Y-64883859D01*
X57115375Y-64914426D01*
X57103804Y-64920463D01*
X57042003Y-64951737D01*
X56987069Y-64978099D01*
X56949728Y-64994371D01*
X56894999Y-65019207D01*
X56821758Y-65060326D01*
X56729533Y-65118554D01*
X56615451Y-65195624D01*
X56599451Y-65206792D01*
X56520980Y-65266478D01*
X56464945Y-65319913D01*
X56425305Y-65372722D01*
X56409796Y-65399418D01*
X56390456Y-65444115D01*
X56391957Y-65467752D01*
X56393230Y-65468819D01*
X56419104Y-65479673D01*
X56466364Y-65492808D01*
X56525801Y-65505620D01*
X56579329Y-65517802D01*
X56647788Y-65544478D01*
X56687542Y-65579367D01*
X56700393Y-65623686D01*
X56700130Y-65630667D01*
X56692068Y-65657938D01*
X56669676Y-65683203D01*
X56628821Y-65709231D01*
X56565369Y-65738794D01*
X56475187Y-65774664D01*
X56391398Y-65805951D01*
X56293197Y-65840083D01*
X56213093Y-65863991D01*
X56144560Y-65879561D01*
X56081077Y-65888681D01*
X56079525Y-65888834D01*
X56037144Y-65890831D01*
X55971745Y-65891550D01*
X55891964Y-65890978D01*
X55806436Y-65889102D01*
X55748726Y-65886974D01*
X55665552Y-65881312D01*
X55591136Y-65871437D01*
X55517851Y-65855567D01*
X55438070Y-65831922D01*
X55344166Y-65798722D01*
X55228512Y-65754186D01*
X55210965Y-65747184D01*
X55138244Y-65714640D01*
X55091667Y-65685442D01*
X55066900Y-65656240D01*
X55059607Y-65623686D01*
X55063882Y-65596780D01*
X55092106Y-65558075D01*
X55148278Y-65528095D01*
X55234199Y-65505620D01*
X55241987Y-65504124D01*
X55300404Y-65491129D01*
X55345492Y-65478137D01*
X55368043Y-65467752D01*
X55371373Y-65459740D01*
X55363243Y-65426160D01*
X55334695Y-65372722D01*
X55328855Y-65363550D01*
X55286855Y-65311031D01*
X55227433Y-65256931D01*
X55144549Y-65195624D01*
X55035400Y-65121796D01*
X54942196Y-65062706D01*
X54868112Y-65020809D01*
X54810272Y-64994371D01*
X54805060Y-64992309D01*
X54763573Y-64973734D01*
X54706519Y-64946047D01*
X54644625Y-64914426D01*
X54638184Y-64911083D01*
X54573442Y-64881229D01*
X54515500Y-64860565D01*
X54474709Y-64852844D01*
X54425305Y-64842401D01*
X54376584Y-64805251D01*
X54364456Y-64792313D01*
X54346118Y-64767933D01*
X54337396Y-64741040D01*
X54336114Y-64701797D01*
X54338320Y-64667744D01*
X54421304Y-64667744D01*
X54429432Y-64700161D01*
X54457983Y-64732277D01*
X54492646Y-64756939D01*
X54556651Y-64772413D01*
X54585686Y-64776250D01*
X54644697Y-64795378D01*
X54711142Y-64827036D01*
X54764964Y-64855333D01*
X54815995Y-64879664D01*
X54850488Y-64893305D01*
X54854259Y-64894442D01*
X54880035Y-64904363D01*
X54913435Y-64921084D01*
X54958251Y-64946868D01*
X55018277Y-64983976D01*
X55097307Y-65034672D01*
X55199133Y-65101216D01*
X55265023Y-65145797D01*
X55327535Y-65192689D01*
X55366499Y-65229295D01*
X55384806Y-65258055D01*
X55399095Y-65289836D01*
X55411607Y-65303255D01*
X55417209Y-65304687D01*
X55437369Y-65326543D01*
X55457025Y-65366874D01*
X55471934Y-65415492D01*
X55477847Y-65462206D01*
X55474182Y-65500067D01*
X55453664Y-65540088D01*
X55410891Y-65566498D01*
X55341115Y-65583507D01*
X55334089Y-65584653D01*
X55277869Y-65594322D01*
X55229448Y-65603355D01*
X55182127Y-65612803D01*
X55225517Y-65635538D01*
X55229118Y-65637416D01*
X55313935Y-65677263D01*
X55404625Y-65712778D01*
X55496126Y-65742768D01*
X55583373Y-65766041D01*
X55661305Y-65781406D01*
X55724857Y-65787669D01*
X55768967Y-65783638D01*
X55788571Y-65768122D01*
X55798551Y-65753039D01*
X55826565Y-65743873D01*
X55879214Y-65741293D01*
X55919800Y-65742709D01*
X55956847Y-65750753D01*
X55973700Y-65767588D01*
X55990272Y-65781028D01*
X56033246Y-65786694D01*
X56096350Y-65781532D01*
X56174458Y-65766750D01*
X56262449Y-65743553D01*
X56355199Y-65713148D01*
X56447585Y-65676740D01*
X56534483Y-65635538D01*
X56577873Y-65612803D01*
X56530552Y-65603355D01*
X56525221Y-65602304D01*
X56474298Y-65592930D01*
X56418885Y-65583507D01*
X56367518Y-65572547D01*
X56316927Y-65549484D01*
X56290055Y-65514108D01*
X56282153Y-65462206D01*
X56282750Y-65448764D01*
X56291858Y-65400389D01*
X56308665Y-65353219D01*
X56328925Y-65317445D01*
X56348392Y-65303255D01*
X56360737Y-65290120D01*
X56375193Y-65258055D01*
X56387538Y-65236551D01*
X56421470Y-65201976D01*
X56478282Y-65157679D01*
X56560867Y-65101216D01*
X56579339Y-65089087D01*
X56677156Y-65025305D01*
X56752799Y-64977000D01*
X56810063Y-64941910D01*
X56852741Y-64917772D01*
X56884626Y-64902324D01*
X56909512Y-64893305D01*
X56942062Y-64880526D01*
X56992606Y-64856551D01*
X57048858Y-64827036D01*
X57092268Y-64805259D01*
X57155163Y-64781285D01*
X57203349Y-64772413D01*
X57243665Y-64766575D01*
X57302017Y-64732277D01*
X57326081Y-64706861D01*
X57338361Y-64675997D01*
X57334441Y-64631738D01*
X57332885Y-64623696D01*
X57320806Y-64579616D01*
X57307352Y-64550932D01*
X57288711Y-64533510D01*
X57234512Y-64505876D01*
X57151567Y-64481588D01*
X57038201Y-64460079D01*
X57014564Y-64456283D01*
X56946969Y-64443676D01*
X56901858Y-64430864D01*
X56871755Y-64415245D01*
X56849189Y-64394213D01*
X56847841Y-64392629D01*
X56818726Y-64334923D01*
X56816026Y-64270074D01*
X56840302Y-64209744D01*
X56878607Y-64148818D01*
X56932471Y-64041896D01*
X56978676Y-63925691D01*
X57012899Y-63811527D01*
X57030816Y-63710729D01*
X57034239Y-63680778D01*
X57042712Y-63621135D01*
X57053095Y-63557910D01*
X57061532Y-63498971D01*
X57068364Y-63410797D01*
X57069278Y-63325324D01*
X57064269Y-63252193D01*
X57053330Y-63201041D01*
X57024384Y-63149702D01*
X56973640Y-63092562D01*
X56913798Y-63045172D01*
X56855600Y-63017502D01*
X56837033Y-63012664D01*
X56804685Y-63008088D01*
X56782766Y-63017494D01*
X56763826Y-63046183D01*
X56740416Y-63099456D01*
X56731968Y-63118803D01*
X56705117Y-63173280D01*
X56680059Y-63216080D01*
X56674182Y-63224488D01*
X56656211Y-63244176D01*
X56632679Y-63254927D01*
X56594720Y-63259415D01*
X56533468Y-63260317D01*
X56470734Y-63258798D01*
X56422015Y-63251459D01*
X56377689Y-63234473D01*
X56323495Y-63204015D01*
X56274472Y-63176122D01*
X56232985Y-63155566D01*
X56209573Y-63147714D01*
X56200103Y-63149209D01*
X56164780Y-63160603D01*
X56119027Y-63179533D01*
X56066287Y-63196260D01*
X55983023Y-63209006D01*
X55888177Y-63213707D01*
X55792431Y-63210361D01*
X55706468Y-63198970D01*
X55640973Y-63179533D01*
X55618811Y-63169912D01*
X55576429Y-63154000D01*
X55550426Y-63147714D01*
X55527945Y-63155159D01*
X55486834Y-63175424D01*
X55436505Y-63204015D01*
X55385029Y-63233121D01*
X55340522Y-63250779D01*
X55292444Y-63258570D01*
X55226532Y-63260317D01*
X55204354Y-63260259D01*
X55151333Y-63258524D01*
X55118835Y-63252366D01*
X55097993Y-63239110D01*
X55079941Y-63216080D01*
X55071520Y-63202834D01*
X55044692Y-63153587D01*
X55019584Y-63099456D01*
X55008691Y-63073657D01*
X54988074Y-63031396D01*
X54968786Y-63011483D01*
X54943377Y-63008619D01*
X54904400Y-63017502D01*
X54852474Y-63041230D01*
X54792304Y-63087045D01*
X54740122Y-63143639D01*
X54706670Y-63201041D01*
X54698295Y-63234656D01*
X54691565Y-63302402D01*
X54690761Y-63385286D01*
X54695876Y-63473668D01*
X54706905Y-63557910D01*
X54714044Y-63600414D01*
X54723396Y-63663028D01*
X54729184Y-63710729D01*
X54739205Y-63776382D01*
X54768547Y-63887403D01*
X54811292Y-64004186D01*
X54863117Y-64115408D01*
X54919698Y-64209744D01*
X54920887Y-64211469D01*
X54944299Y-64272122D01*
X54940753Y-64336923D01*
X54910811Y-64394213D01*
X54904900Y-64400714D01*
X54880999Y-64419990D01*
X54847497Y-64434574D01*
X54796922Y-64447068D01*
X54721799Y-64460079D01*
X54653500Y-64472003D01*
X54557640Y-64495023D01*
X54491248Y-64521144D01*
X54452648Y-64550932D01*
X54450444Y-64554104D01*
X54436832Y-64586662D01*
X54425559Y-64631738D01*
X54421304Y-64667744D01*
X54338320Y-64667744D01*
X54340094Y-64640368D01*
X54340361Y-64636978D01*
X54346476Y-64575267D01*
X54353691Y-64524128D01*
X54360502Y-64494332D01*
X54366978Y-64482131D01*
X54407366Y-64446386D01*
X54476006Y-64415277D01*
X54570048Y-64389879D01*
X54686640Y-64371268D01*
X54743358Y-64363613D01*
X54796965Y-64350349D01*
X54824783Y-64329407D01*
X54828986Y-64295896D01*
X54811743Y-64244923D01*
X54775225Y-64171593D01*
X54772215Y-64165872D01*
X54733578Y-64088824D01*
X54703555Y-64018959D01*
X54679845Y-63948432D01*
X54660148Y-63869398D01*
X54642164Y-63774011D01*
X54623593Y-63654427D01*
X54620479Y-63632461D01*
X54605623Y-63496411D01*
X54599522Y-63371941D01*
X54602092Y-63263919D01*
X54613247Y-63177213D01*
X54632903Y-63116691D01*
X54644856Y-63097310D01*
X54677152Y-63054366D01*
X54716283Y-63009238D01*
X54750343Y-62976196D01*
X54801127Y-62943787D01*
X54866574Y-62923631D01*
X54901853Y-62915154D01*
X54955213Y-62899842D01*
X54991566Y-62886289D01*
X55003504Y-62881093D01*
X55029276Y-62878053D01*
X55050509Y-62893563D01*
X55071180Y-62931877D01*
X55095263Y-62997248D01*
X55120186Y-63064137D01*
X55155115Y-63130292D01*
X55194093Y-63167370D01*
X55241011Y-63177105D01*
X55299760Y-63161229D01*
X55374233Y-63121475D01*
X55444233Y-63084005D01*
X55530722Y-63056871D01*
X55610460Y-63057311D01*
X55688151Y-63084772D01*
X55697303Y-63089416D01*
X55747662Y-63109107D01*
X55804305Y-63119110D01*
X55880000Y-63121895D01*
X55895236Y-63121820D01*
X55966661Y-63117945D01*
X56021276Y-63106420D01*
X56071849Y-63084772D01*
X56128478Y-63062107D01*
X56207197Y-63054290D01*
X56291392Y-63073896D01*
X56385767Y-63121475D01*
X56441329Y-63152523D01*
X56504049Y-63175195D01*
X56553858Y-63172736D01*
X56594647Y-63143414D01*
X56630309Y-63085496D01*
X56664736Y-62997248D01*
X56674639Y-62968683D01*
X56696942Y-62914201D01*
X56717358Y-62885144D01*
X56739864Y-62877258D01*
X56768434Y-62886289D01*
X56788216Y-62894261D01*
X56836844Y-62909419D01*
X56893426Y-62923631D01*
X56939263Y-62936099D01*
X56993053Y-62963257D01*
X57043717Y-63009238D01*
X57067461Y-63035861D01*
X57103686Y-63081219D01*
X57127097Y-63116691D01*
X57130722Y-63124217D01*
X57149057Y-63189147D01*
X57158877Y-63279500D01*
X57160098Y-63390410D01*
X57152636Y-63517009D01*
X57136407Y-63654427D01*
X57135073Y-63663525D01*
X57116615Y-63781207D01*
X57098587Y-63875227D01*
X57078690Y-63953431D01*
X57054622Y-64023663D01*
X57024083Y-64093769D01*
X56984774Y-64171593D01*
X56956287Y-64227574D01*
X56933639Y-64284088D01*
X56931851Y-64321821D01*
X56953094Y-64345667D01*
X56999541Y-64360518D01*
X57073360Y-64371268D01*
X57112825Y-64376402D01*
X57222534Y-64397295D01*
X57308782Y-64424631D01*
X57368721Y-64457336D01*
X57399498Y-64494332D01*
X57399827Y-64495209D01*
X57406698Y-64526418D01*
X57413892Y-64578395D01*
X57419906Y-64640368D01*
X57422232Y-64671722D01*
X57422390Y-64675997D01*
X57424086Y-64721827D01*
G37*
G36*
X60692988Y-59411814D02*
G01*
X60686837Y-59657709D01*
X60674660Y-59884406D01*
X60656669Y-60089386D01*
X60633077Y-60270132D01*
X60604096Y-60424126D01*
X60569938Y-60548851D01*
X60568867Y-60552064D01*
X60546240Y-60628019D01*
X60523645Y-60716355D01*
X60505821Y-60798605D01*
X60492919Y-60859047D01*
X60466235Y-60951932D01*
X60436230Y-61024674D01*
X60404654Y-61075403D01*
X60373260Y-61102250D01*
X60343798Y-61103346D01*
X60318019Y-61076821D01*
X60297675Y-61020806D01*
X60290049Y-61000159D01*
X60258558Y-60951180D01*
X60213608Y-60901405D01*
X60164657Y-60860601D01*
X60121164Y-60838536D01*
X60099505Y-60834480D01*
X60056677Y-60838322D01*
X60017881Y-60862764D01*
X59978812Y-60911247D01*
X59935166Y-60987213D01*
X59934385Y-60988704D01*
X59884452Y-61070186D01*
X59818724Y-61158014D01*
X59743513Y-61245311D01*
X59665130Y-61325198D01*
X59589887Y-61390796D01*
X59524096Y-61435226D01*
X59481138Y-61455698D01*
X59409406Y-61484126D01*
X59339105Y-61506800D01*
X59286653Y-61521782D01*
X59217229Y-61543013D01*
X59161571Y-61561524D01*
X59128801Y-61572645D01*
X59061375Y-61593615D01*
X58994548Y-61612581D01*
X58899913Y-61637761D01*
X58909136Y-61727126D01*
X58921302Y-61786121D01*
X58953394Y-61848129D01*
X59007562Y-61901769D01*
X59087164Y-61950199D01*
X59195561Y-61996580D01*
X59269766Y-62024373D01*
X59380551Y-61973821D01*
X59381315Y-61973472D01*
X59444425Y-61944383D01*
X59503684Y-61916591D01*
X59546358Y-61896068D01*
X59580922Y-61875122D01*
X59642838Y-61825243D01*
X59707639Y-61761569D01*
X59767034Y-61692491D01*
X59812737Y-61626401D01*
X59857340Y-61553572D01*
X59922140Y-61462461D01*
X59979704Y-61400885D01*
X60029551Y-61369325D01*
X60071198Y-61368263D01*
X60071219Y-61368271D01*
X60080360Y-61374384D01*
X60086966Y-61387457D01*
X60091277Y-61411689D01*
X60093533Y-61451279D01*
X60093973Y-61510427D01*
X60092837Y-61593330D01*
X60090364Y-61704188D01*
X60087549Y-61809197D01*
X60084042Y-61900689D01*
X60079364Y-61973218D01*
X60072739Y-62033716D01*
X60063389Y-62089114D01*
X60050539Y-62146344D01*
X60033410Y-62212335D01*
X60029132Y-62228016D01*
X60004908Y-62308890D01*
X59975197Y-62395052D01*
X59938140Y-62491159D01*
X59891874Y-62601867D01*
X59834538Y-62731832D01*
X59764272Y-62885711D01*
X59729007Y-62953374D01*
X59674223Y-63043743D01*
X59610659Y-63138210D01*
X59545324Y-63226419D01*
X59485228Y-63298011D01*
X59466805Y-63316304D01*
X59389501Y-63370715D01*
X59300323Y-63407599D01*
X59212085Y-63421178D01*
X59181243Y-63420288D01*
X59140870Y-63412631D01*
X59123076Y-63395733D01*
X59119143Y-63382497D01*
X59113365Y-63325376D01*
X59116241Y-63249258D01*
X59127153Y-63162968D01*
X59145484Y-63075326D01*
X59151080Y-63052926D01*
X59170897Y-62955887D01*
X59176570Y-62882999D01*
X59168099Y-62830297D01*
X59145484Y-62793819D01*
X59139698Y-62788410D01*
X59089218Y-62763111D01*
X59032637Y-62764217D01*
X58978016Y-62790019D01*
X58933416Y-62838805D01*
X58919967Y-62863064D01*
X58909995Y-62890161D01*
X58903318Y-62925206D01*
X58899166Y-62974256D01*
X58896772Y-63043365D01*
X58895366Y-63138591D01*
X58895042Y-63162375D01*
X58892386Y-63260936D01*
X58887954Y-63357264D01*
X58882278Y-63441380D01*
X58875891Y-63503303D01*
X58850440Y-63631871D01*
X58797061Y-63801476D01*
X58723728Y-63971230D01*
X58634578Y-64131811D01*
X58533752Y-64273898D01*
X58509662Y-64304496D01*
X58437297Y-64405113D01*
X58361352Y-64521787D01*
X58288416Y-64644566D01*
X58285705Y-64649189D01*
X58256349Y-64691762D01*
X58211412Y-64749698D01*
X58156513Y-64815975D01*
X58097268Y-64883569D01*
X58080665Y-64901883D01*
X58018853Y-64968034D01*
X57968788Y-65016479D01*
X57923422Y-65053037D01*
X57875707Y-65083532D01*
X57818597Y-65113785D01*
X57804363Y-65120996D01*
X57732608Y-65159687D01*
X57663616Y-65200113D01*
X57610585Y-65234608D01*
X57575523Y-65258487D01*
X57522927Y-65290982D01*
X57481895Y-65312579D01*
X57461765Y-65319853D01*
X57406604Y-65330927D01*
X57348038Y-65334122D01*
X57297551Y-65329251D01*
X57266624Y-65316124D01*
X57259513Y-65302942D01*
X57250745Y-65263052D01*
X57248088Y-65222625D01*
X57327752Y-65222625D01*
X57334100Y-65236096D01*
X57361851Y-65240719D01*
X57406442Y-65229949D01*
X57462161Y-65205364D01*
X57523295Y-65168544D01*
X57530275Y-65163815D01*
X57599000Y-65120387D01*
X57679009Y-65073855D01*
X57754393Y-65033512D01*
X57809425Y-65004168D01*
X57859498Y-64972016D01*
X57906730Y-64933553D01*
X57958759Y-64882501D01*
X58023223Y-64812583D01*
X58055562Y-64775418D01*
X58131245Y-64680829D01*
X58203813Y-64580955D01*
X58263114Y-64489468D01*
X58297049Y-64434246D01*
X58350844Y-64351657D01*
X58404317Y-64274355D01*
X58449762Y-64213728D01*
X58485990Y-64166235D01*
X58569085Y-64041534D01*
X58645519Y-63906396D01*
X58706639Y-63775579D01*
X58710786Y-63765220D01*
X58752460Y-63630423D01*
X58782818Y-63468893D01*
X58801382Y-63283916D01*
X58807676Y-63078779D01*
X58807819Y-63024188D01*
X58809137Y-62949552D01*
X58812601Y-62896068D01*
X58819123Y-62856716D01*
X58829619Y-62824475D01*
X58845003Y-62792328D01*
X58848741Y-62785416D01*
X58894850Y-62725202D01*
X58956363Y-62687978D01*
X59039899Y-62669573D01*
X59085376Y-62667694D01*
X59160560Y-62680446D01*
X59217702Y-62712529D01*
X59251526Y-62761647D01*
X59253135Y-62766262D01*
X59270680Y-62860535D01*
X59267050Y-62973628D01*
X59242380Y-63100543D01*
X59227998Y-63161132D01*
X59215868Y-63230357D01*
X59210445Y-63287533D01*
X59212274Y-63326318D01*
X59221894Y-63340372D01*
X59234222Y-63336226D01*
X59268519Y-63320137D01*
X59314389Y-63296135D01*
X59339571Y-63280970D01*
X59388764Y-63241860D01*
X59441799Y-63185945D01*
X59504448Y-63107499D01*
X59513261Y-63095834D01*
X59558509Y-63034544D01*
X59596495Y-62979314D01*
X59630508Y-62924189D01*
X59663834Y-62863217D01*
X59699760Y-62790444D01*
X59741573Y-62699916D01*
X59792560Y-62585681D01*
X59819920Y-62522771D01*
X59881124Y-62370013D01*
X59927192Y-62231966D01*
X59960414Y-62100082D01*
X59983080Y-61965812D01*
X59997479Y-61820608D01*
X59999124Y-61797492D01*
X60004814Y-61713916D01*
X60009402Y-61640888D01*
X60012456Y-61585585D01*
X60013539Y-61555187D01*
X60013420Y-61514972D01*
X59981420Y-61555187D01*
X59964026Y-61579043D01*
X59932228Y-61627318D01*
X59899489Y-61681038D01*
X59838362Y-61772469D01*
X59750812Y-61867173D01*
X59643302Y-61948359D01*
X59509795Y-62021299D01*
X59412505Y-62064806D01*
X59331507Y-62092526D01*
X59261706Y-62103333D01*
X59195078Y-62097492D01*
X59123598Y-62075272D01*
X59039243Y-62036938D01*
X59013600Y-62023914D01*
X58953779Y-61991018D01*
X58906070Y-61961357D01*
X58879008Y-61940088D01*
X58861678Y-61910190D01*
X58842142Y-61854872D01*
X58825045Y-61786395D01*
X58812847Y-61714813D01*
X58808011Y-61650175D01*
X58811228Y-61614870D01*
X58831454Y-61573898D01*
X58874349Y-61544294D01*
X58944616Y-61521632D01*
X58948333Y-61520718D01*
X59005695Y-61504579D01*
X59077266Y-61481889D01*
X59148455Y-61457255D01*
X59157982Y-61453819D01*
X59225678Y-61430936D01*
X59288326Y-61412046D01*
X59333446Y-61400948D01*
X59343126Y-61398890D01*
X59414032Y-61371903D01*
X59493491Y-61325263D01*
X59572833Y-61264703D01*
X59643392Y-61195955D01*
X59681643Y-61153426D01*
X59719632Y-61111878D01*
X59744966Y-61084964D01*
X59751964Y-61076721D01*
X59777100Y-61040485D01*
X59809861Y-60987645D01*
X59844988Y-60926530D01*
X59859345Y-60901235D01*
X59895834Y-60841941D01*
X59929073Y-60794181D01*
X59953297Y-60766476D01*
X59958818Y-60762222D01*
X60012809Y-60740919D01*
X60081470Y-60737806D01*
X60156019Y-60750633D01*
X60227675Y-60777150D01*
X60287656Y-60815109D01*
X60327182Y-60862259D01*
X60329890Y-60867348D01*
X60350890Y-60898863D01*
X60367303Y-60911742D01*
X60368271Y-60911619D01*
X60379172Y-60895935D01*
X60392155Y-60852884D01*
X60407611Y-60780919D01*
X60425926Y-60678493D01*
X60434825Y-60637783D01*
X60452234Y-60574533D01*
X60473018Y-60509589D01*
X60480223Y-60488374D01*
X60509710Y-60389239D01*
X60533956Y-60283211D01*
X60553701Y-60165241D01*
X60569685Y-60030281D01*
X60582650Y-59873282D01*
X60593334Y-59689196D01*
X60599170Y-59560225D01*
X60606065Y-59345747D01*
X60608030Y-59153831D01*
X60605009Y-58978500D01*
X60596948Y-58813779D01*
X60583792Y-58653691D01*
X60581824Y-58633952D01*
X60571258Y-58538797D01*
X60559372Y-58454920D01*
X60544471Y-58373936D01*
X60524862Y-58287461D01*
X60498850Y-58187110D01*
X60464741Y-58064497D01*
X60459491Y-58045926D01*
X60430253Y-57940455D01*
X60403188Y-57839568D01*
X60380000Y-57749841D01*
X60362397Y-57677850D01*
X60352083Y-57630171D01*
X60341594Y-57579281D01*
X60324995Y-57512733D01*
X60309000Y-57461267D01*
X60291589Y-57421123D01*
X60254561Y-57349687D01*
X60206692Y-57266476D01*
X60152859Y-57179565D01*
X60097935Y-57097029D01*
X60046795Y-57026941D01*
X60046784Y-57026928D01*
X60004108Y-56970297D01*
X59964451Y-56914606D01*
X59936399Y-56871910D01*
X59921198Y-56847041D01*
X59894389Y-56809672D01*
X59868323Y-56791328D01*
X59835643Y-56790894D01*
X59788992Y-56807257D01*
X59721014Y-56839303D01*
X59675967Y-56862444D01*
X59594368Y-56907928D01*
X59507299Y-56959734D01*
X59427297Y-57010553D01*
X59378115Y-57042664D01*
X59318289Y-57079153D01*
X59274578Y-57101031D01*
X59241047Y-57111095D01*
X59211763Y-57112143D01*
X59203811Y-57111362D01*
X59163969Y-57102109D01*
X59141453Y-57082075D01*
X59135250Y-57046628D01*
X59144345Y-56991137D01*
X59167725Y-56910969D01*
X59175267Y-56888133D01*
X59201918Y-56814849D01*
X59229369Y-56748295D01*
X59252739Y-56700553D01*
X59263697Y-56681062D01*
X59285213Y-56636545D01*
X59289614Y-56609995D01*
X59274790Y-56601104D01*
X59238630Y-56609563D01*
X59179026Y-56635063D01*
X59093867Y-56677295D01*
X59017708Y-56718562D01*
X58934458Y-56768098D01*
X58860253Y-56816532D01*
X58805137Y-56857591D01*
X58731216Y-56923304D01*
X58650761Y-57002276D01*
X58574856Y-57083612D01*
X58510410Y-57159890D01*
X58464332Y-57223688D01*
X58421594Y-57291746D01*
X58464245Y-57302451D01*
X58508683Y-57304648D01*
X58557890Y-57294716D01*
X58604007Y-57281784D01*
X58644734Y-57276276D01*
X58663762Y-57277908D01*
X58714939Y-57294768D01*
X58759213Y-57323971D01*
X58783995Y-57358119D01*
X58789649Y-57384987D01*
X58785518Y-57456736D01*
X58759466Y-57533345D01*
X58714297Y-57604887D01*
X58678684Y-57653347D01*
X58636071Y-57719802D01*
X58598556Y-57786172D01*
X58586708Y-57808707D01*
X58544241Y-57885888D01*
X58493541Y-57973995D01*
X58437311Y-58068718D01*
X58378255Y-58165748D01*
X58319078Y-58260778D01*
X58262482Y-58349498D01*
X58211173Y-58427599D01*
X58167853Y-58490773D01*
X58135228Y-58534712D01*
X58116000Y-58555106D01*
X58105155Y-58564222D01*
X58080484Y-58599673D01*
X58059742Y-58645654D01*
X58047845Y-58689922D01*
X58049707Y-58720235D01*
X58073549Y-58753620D01*
X58129596Y-58801875D01*
X58196403Y-58835172D01*
X58250459Y-58857902D01*
X58302388Y-58896914D01*
X58340391Y-58952586D01*
X58367714Y-59029996D01*
X58387605Y-59134224D01*
X58387850Y-59135917D01*
X58396935Y-59202387D01*
X58407308Y-59283704D01*
X58418202Y-59373187D01*
X58428849Y-59464157D01*
X58438483Y-59549933D01*
X58446337Y-59623836D01*
X58451643Y-59679186D01*
X58453635Y-59709304D01*
X58453636Y-59709534D01*
X58458266Y-59735346D01*
X58470094Y-59732892D01*
X58486830Y-59704625D01*
X58506183Y-59653002D01*
X58511728Y-59634763D01*
X58529135Y-59571221D01*
X58548475Y-59493943D01*
X58566493Y-59415732D01*
X58587617Y-59324717D01*
X58635737Y-59147617D01*
X58690211Y-58980627D01*
X58748994Y-58829248D01*
X58810041Y-58698985D01*
X58871308Y-58595339D01*
X58883219Y-58577578D01*
X58910002Y-58537184D01*
X58946466Y-58481947D01*
X58988297Y-58418392D01*
X59024376Y-58363584D01*
X59060536Y-58308848D01*
X59087155Y-58268776D01*
X59100181Y-58249487D01*
X59123457Y-58219672D01*
X59161911Y-58173522D01*
X59209364Y-58118168D01*
X59259890Y-58060388D01*
X59307560Y-58006958D01*
X59346449Y-57964656D01*
X59370629Y-57940258D01*
X59419393Y-57906350D01*
X59480025Y-57878282D01*
X59539172Y-57861818D01*
X59585082Y-57861287D01*
X59600378Y-57868573D01*
X59633014Y-57904632D01*
X59663832Y-57963696D01*
X59689964Y-58039612D01*
X59708541Y-58126224D01*
X59716797Y-58180361D01*
X59728516Y-58258165D01*
X59739662Y-58333017D01*
X59746642Y-58400840D01*
X59751837Y-58495879D01*
X59755011Y-58609970D01*
X59756159Y-58736492D01*
X59755276Y-58868824D01*
X59752355Y-59000343D01*
X59747393Y-59124429D01*
X59740383Y-59234459D01*
X59735533Y-59294347D01*
X59718598Y-59486266D01*
X59701221Y-59651628D01*
X59682493Y-59794799D01*
X59661504Y-59920147D01*
X59637344Y-60032039D01*
X59609104Y-60134842D01*
X59575872Y-60232923D01*
X59536739Y-60330651D01*
X59490796Y-60432391D01*
X59471869Y-60472613D01*
X59438215Y-60544791D01*
X59411226Y-60603553D01*
X59393286Y-60643685D01*
X59386776Y-60659974D01*
X59382925Y-60670278D01*
X59365395Y-60702551D01*
X59338278Y-60747934D01*
X59306662Y-60798372D01*
X59275629Y-60845806D01*
X59250266Y-60882178D01*
X59235657Y-60899431D01*
X59228683Y-60903151D01*
X59195851Y-60910565D01*
X59161868Y-60909421D01*
X59142803Y-60899677D01*
X59142733Y-60899530D01*
X59127070Y-60884771D01*
X59092061Y-60858200D01*
X59045139Y-60825463D01*
X59000290Y-60796499D01*
X58961156Y-60776859D01*
X58928597Y-60770657D01*
X58892320Y-60774455D01*
X58857979Y-60781698D01*
X58764415Y-60815274D01*
X58695964Y-60866450D01*
X58649617Y-60938110D01*
X58622364Y-61033136D01*
X58615975Y-61064092D01*
X58605553Y-61102889D01*
X58589757Y-61152971D01*
X58567030Y-61219019D01*
X58535819Y-61305713D01*
X58494566Y-61417736D01*
X58471788Y-61474853D01*
X58411489Y-61603958D01*
X58333529Y-61749480D01*
X58240594Y-61906536D01*
X58197523Y-61973549D01*
X58135373Y-62070245D01*
X58114923Y-62100667D01*
X58043736Y-62202253D01*
X57980467Y-62283657D01*
X57919368Y-62351391D01*
X57854691Y-62411963D01*
X57780687Y-62471883D01*
X57750810Y-62495668D01*
X57680452Y-62557577D01*
X57609573Y-62626890D01*
X57542308Y-62698858D01*
X57482793Y-62768730D01*
X57435163Y-62831757D01*
X57403552Y-62883187D01*
X57392096Y-62918272D01*
X57392161Y-62921907D01*
X57396225Y-62935182D01*
X57410011Y-62933395D01*
X57438263Y-62914409D01*
X57485727Y-62876084D01*
X57554886Y-62825404D01*
X57658402Y-62764240D01*
X57771654Y-62709502D01*
X57883607Y-62666421D01*
X57983230Y-62640227D01*
X57988730Y-62639271D01*
X58065360Y-62629387D01*
X58156814Y-62622302D01*
X58253746Y-62618265D01*
X58346805Y-62617523D01*
X58426644Y-62620325D01*
X58483915Y-62626920D01*
X58496521Y-62629816D01*
X58523140Y-62642636D01*
X58541310Y-62669154D01*
X58558313Y-62718313D01*
X58578129Y-62821731D01*
X58582151Y-62953332D01*
X58568287Y-63099119D01*
X58536793Y-63252737D01*
X58524983Y-63297611D01*
X58499908Y-63384345D01*
X58474935Y-63453088D01*
X58445732Y-63513340D01*
X58407966Y-63574605D01*
X58357305Y-63646384D01*
X58308149Y-63714513D01*
X58252728Y-63793298D01*
X58204419Y-63864075D01*
X58166212Y-63922366D01*
X58141095Y-63963698D01*
X58132058Y-63983593D01*
X58124927Y-64000581D01*
X58103920Y-64036739D01*
X58073893Y-64083115D01*
X58001673Y-64202465D01*
X57938846Y-64336479D01*
X57898433Y-64462899D01*
X57880801Y-64527543D01*
X57854993Y-64596607D01*
X57819038Y-64671362D01*
X57769746Y-64758385D01*
X57703931Y-64864255D01*
X57687627Y-64889497D01*
X57628863Y-64975730D01*
X57579646Y-65040046D01*
X57541764Y-65080247D01*
X57517003Y-65094136D01*
X57495658Y-65101864D01*
X57458306Y-65122892D01*
X57414180Y-65151363D01*
X57371938Y-65181395D01*
X57340242Y-65207109D01*
X57327752Y-65222625D01*
X57248088Y-65222625D01*
X57247321Y-65210946D01*
X57248431Y-65162800D01*
X57256387Y-65131319D01*
X57278106Y-65108283D01*
X57320503Y-65081452D01*
X57349950Y-65063805D01*
X57416559Y-65022169D01*
X57464846Y-64987390D01*
X57502089Y-64953083D01*
X57535567Y-64912865D01*
X57572559Y-64860350D01*
X57584055Y-64843427D01*
X57619713Y-64791591D01*
X57648066Y-64751322D01*
X57663805Y-64730193D01*
X57666996Y-64726248D01*
X57694805Y-64681771D01*
X57727005Y-64617172D01*
X57759474Y-64541918D01*
X57788090Y-64465479D01*
X57808731Y-64397322D01*
X57825266Y-64341437D01*
X57852881Y-64266304D01*
X57885435Y-64190177D01*
X57919271Y-64120975D01*
X57950730Y-64066615D01*
X57976153Y-64035013D01*
X57977043Y-64034251D01*
X57999617Y-64005013D01*
X58020817Y-63963552D01*
X58021283Y-63962416D01*
X58041616Y-63922493D01*
X58075747Y-63864416D01*
X58118742Y-63795735D01*
X58165667Y-63723999D01*
X58211587Y-63656758D01*
X58251569Y-63601559D01*
X58280679Y-63565953D01*
X58299908Y-63541768D01*
X58331152Y-63492910D01*
X58363657Y-63434335D01*
X58392710Y-63375206D01*
X58413598Y-63324688D01*
X58421609Y-63291942D01*
X58422281Y-63283525D01*
X58430594Y-63244908D01*
X58445353Y-63197062D01*
X58457525Y-63157937D01*
X58477395Y-63064501D01*
X58488451Y-62966130D01*
X58489674Y-62874437D01*
X58480047Y-62801035D01*
X58459759Y-62721432D01*
X58372318Y-62709240D01*
X58366683Y-62708491D01*
X58274654Y-62703362D01*
X58166915Y-62707428D01*
X58057257Y-62719692D01*
X57959469Y-62739153D01*
X57898310Y-62759498D01*
X57808690Y-62798965D01*
X57713563Y-62848958D01*
X57623499Y-62903843D01*
X57549069Y-62957982D01*
X57510651Y-62988205D01*
X57474606Y-63009071D01*
X57438189Y-63016705D01*
X57388208Y-63015849D01*
X57303622Y-63010982D01*
X57298885Y-62930131D01*
X57298327Y-62886564D01*
X57305441Y-62847519D01*
X57324271Y-62805668D01*
X57358610Y-62749544D01*
X57367284Y-62736733D01*
X57411873Y-62679504D01*
X57471155Y-62611818D01*
X57538212Y-62540823D01*
X57606126Y-62473665D01*
X57667978Y-62417493D01*
X57716849Y-62379453D01*
X57717883Y-62378763D01*
X57762125Y-62344319D01*
X57813964Y-62296745D01*
X57868150Y-62241820D01*
X57919434Y-62185320D01*
X57962565Y-62133023D01*
X57992293Y-62090706D01*
X58003369Y-62064146D01*
X58003055Y-62063354D01*
X57986084Y-62063136D01*
X57951195Y-62071066D01*
X57939139Y-62074340D01*
X57849972Y-62086800D01*
X57771863Y-62077270D01*
X57711646Y-62046454D01*
X57705834Y-62041711D01*
X57657468Y-62015611D01*
X58019455Y-62015611D01*
X58019719Y-62018434D01*
X58030200Y-62018543D01*
X58053679Y-61993534D01*
X58062665Y-61981879D01*
X58066660Y-61973549D01*
X58047606Y-61987461D01*
X58030448Y-62002184D01*
X58019455Y-62015611D01*
X57657468Y-62015611D01*
X57638512Y-62005382D01*
X57558062Y-61994293D01*
X57460312Y-62007802D01*
X57367967Y-62029728D01*
X57358216Y-62246891D01*
X57349470Y-62368253D01*
X57327001Y-62513708D01*
X57290662Y-62642994D01*
X57238552Y-62764320D01*
X57236506Y-62768336D01*
X57187220Y-62845286D01*
X57134957Y-62891424D01*
X57080856Y-62906420D01*
X57026057Y-62889943D01*
X56971701Y-62841664D01*
X56953509Y-62820525D01*
X56909210Y-62771112D01*
X56854977Y-62712286D01*
X56798689Y-62652652D01*
X56764344Y-62616023D01*
X56712771Y-62558370D01*
X56670293Y-62507762D01*
X56643692Y-62472097D01*
X56642096Y-62469653D01*
X56611209Y-62428780D01*
X56566890Y-62377015D01*
X56518172Y-62324947D01*
X56464648Y-62269757D01*
X56353487Y-62148019D01*
X56265341Y-62039171D01*
X56197638Y-61939589D01*
X56147810Y-61845646D01*
X56113287Y-61753717D01*
X56104687Y-61710603D01*
X56096975Y-61637139D01*
X56091429Y-61543800D01*
X56088052Y-61437082D01*
X56086842Y-61323480D01*
X56087799Y-61209490D01*
X56090923Y-61101609D01*
X56096215Y-61006331D01*
X56103674Y-60930153D01*
X56113299Y-60879570D01*
X56113322Y-60879494D01*
X56134461Y-60814319D01*
X56163561Y-60731474D01*
X56197568Y-60638979D01*
X56233426Y-60544854D01*
X56268079Y-60457121D01*
X56298471Y-60383801D01*
X56321548Y-60332915D01*
X56334862Y-60304607D01*
X56363149Y-60237506D01*
X56387556Y-60171780D01*
X56400565Y-60135549D01*
X56429895Y-60073826D01*
X56464525Y-60031867D01*
X56510544Y-60001229D01*
X56523448Y-59995464D01*
X56572240Y-59983104D01*
X56624874Y-59979450D01*
X56669789Y-59984650D01*
X56695422Y-59998854D01*
X56696762Y-60003248D01*
X56700490Y-60035211D01*
X56704461Y-60093630D01*
X56708485Y-60174393D01*
X56712372Y-60273383D01*
X56715933Y-60386487D01*
X56718978Y-60509589D01*
X56719875Y-60549744D01*
X56723088Y-60674059D01*
X56726704Y-60789594D01*
X56730535Y-60891672D01*
X56734394Y-60975615D01*
X56738093Y-61036745D01*
X56741445Y-61070385D01*
X56749464Y-61102454D01*
X56780396Y-61165890D01*
X56824924Y-61218312D01*
X56876407Y-61252876D01*
X56928200Y-61262740D01*
X56956078Y-61258054D01*
X56982759Y-61240505D01*
X57001100Y-61201292D01*
X57011861Y-61156480D01*
X57019718Y-61070384D01*
X57018403Y-60967008D01*
X57008124Y-60854341D01*
X56989089Y-60740371D01*
X56983173Y-60711786D01*
X56965009Y-60622005D01*
X56947339Y-60532179D01*
X56933278Y-60458062D01*
X56892662Y-60298568D01*
X56824908Y-60123990D01*
X56735768Y-59954617D01*
X56706919Y-59905165D01*
X56669200Y-59837033D01*
X56631112Y-59765254D01*
X56595879Y-59696169D01*
X56566723Y-59636117D01*
X56546866Y-59591442D01*
X56539531Y-59568482D01*
X56534205Y-59545239D01*
X56514405Y-59496478D01*
X56483048Y-59431234D01*
X56443398Y-59355363D01*
X56398716Y-59274724D01*
X56352266Y-59195173D01*
X56307309Y-59122567D01*
X56267108Y-59062764D01*
X56234925Y-59021622D01*
X56225083Y-59010171D01*
X56190610Y-58958556D01*
X56159500Y-58891060D01*
X56130788Y-58804432D01*
X56103506Y-58695419D01*
X56076688Y-58560770D01*
X56059091Y-58455431D01*
X56153484Y-58455431D01*
X56153489Y-58456510D01*
X56157280Y-58496320D01*
X56166666Y-58552486D01*
X56179531Y-58615381D01*
X56193759Y-58675377D01*
X56207232Y-58722845D01*
X56217834Y-58748157D01*
X56218014Y-58748396D01*
X56229891Y-58774935D01*
X56241161Y-58815626D01*
X56248384Y-58837962D01*
X56273092Y-58887652D01*
X56306269Y-58937895D01*
X56333177Y-58975310D01*
X56369787Y-59029639D01*
X56411009Y-59093121D01*
X56453110Y-59159764D01*
X56492356Y-59223575D01*
X56525012Y-59278561D01*
X56547344Y-59318728D01*
X56555617Y-59338084D01*
X56559167Y-59351294D01*
X56572860Y-59387282D01*
X56593322Y-59435363D01*
X56608069Y-59468989D01*
X56633624Y-59528839D01*
X56653215Y-59576593D01*
X56664944Y-59604647D01*
X56691459Y-59660947D01*
X56728518Y-59732699D01*
X56778212Y-59823896D01*
X56842629Y-59938531D01*
X56909242Y-60067077D01*
X56979762Y-60244906D01*
X57021289Y-60414909D01*
X57030917Y-60470472D01*
X57046731Y-60553406D01*
X57062733Y-60630235D01*
X57079654Y-60712150D01*
X57104921Y-60869680D01*
X57117357Y-61010166D01*
X57116895Y-61130522D01*
X57103471Y-61227664D01*
X57077016Y-61298504D01*
X57069087Y-61311671D01*
X57045923Y-61339899D01*
X57015731Y-61353435D01*
X56965948Y-61359139D01*
X56929445Y-61359736D01*
X56839011Y-61344841D01*
X56763603Y-61308030D01*
X56709457Y-61251908D01*
X56707695Y-61249121D01*
X56686537Y-61209613D01*
X56669441Y-61163267D01*
X56656001Y-61106466D01*
X56645810Y-61035595D01*
X56638464Y-60947038D01*
X56633556Y-60837179D01*
X56630679Y-60702403D01*
X56629429Y-60539093D01*
X56629390Y-60527968D01*
X56628514Y-60412095D01*
X56626904Y-60307158D01*
X56624688Y-60217404D01*
X56621993Y-60147081D01*
X56618947Y-60100436D01*
X56615677Y-60081716D01*
X56604168Y-60077329D01*
X56576441Y-60089108D01*
X56543560Y-60119760D01*
X56511541Y-60163167D01*
X56486400Y-60213208D01*
X56484984Y-60216878D01*
X56462173Y-60273307D01*
X56432508Y-60343474D01*
X56402029Y-60413072D01*
X56379894Y-60463526D01*
X56330597Y-60583181D01*
X56278725Y-60719445D01*
X56221471Y-60879570D01*
X56206344Y-60925558D01*
X56194189Y-60972120D01*
X56185695Y-61021911D01*
X56179951Y-61082167D01*
X56176042Y-61160122D01*
X56173054Y-61263014D01*
X56172471Y-61289313D01*
X56171686Y-61425283D01*
X56175997Y-61536122D01*
X56186289Y-61627621D01*
X56203449Y-61705571D01*
X56228362Y-61775761D01*
X56261913Y-61843983D01*
X56271335Y-61859909D01*
X56311117Y-61917572D01*
X56367033Y-61990266D01*
X56434283Y-62072238D01*
X56508071Y-62157738D01*
X56583596Y-62241016D01*
X56656060Y-62316322D01*
X56662415Y-62323079D01*
X56692304Y-62360218D01*
X56723420Y-62404795D01*
X56735299Y-62421877D01*
X56774286Y-62469549D01*
X56823474Y-62522493D01*
X56876649Y-62574754D01*
X56927601Y-62620381D01*
X56970117Y-62653420D01*
X56997986Y-62667917D01*
X57025089Y-62685267D01*
X57048125Y-62728957D01*
X57050541Y-62736051D01*
X57066895Y-62772146D01*
X57081904Y-62789620D01*
X57094183Y-62788900D01*
X57121118Y-62764168D01*
X57152622Y-62710467D01*
X57187768Y-62629515D01*
X57225631Y-62523028D01*
X57237749Y-62484254D01*
X57252108Y-62426880D01*
X57260715Y-62368380D01*
X57264885Y-62298423D01*
X57265935Y-62206675D01*
X57266120Y-62149751D01*
X57268771Y-62069736D01*
X57276901Y-62013493D01*
X57293442Y-61975637D01*
X57321328Y-61950783D01*
X57363492Y-61933546D01*
X57422865Y-61918541D01*
X57482766Y-61905922D01*
X57558204Y-61895805D01*
X57621125Y-61898067D01*
X57682311Y-61913506D01*
X57752545Y-61942919D01*
X57764652Y-61948444D01*
X57834753Y-61974173D01*
X57889932Y-61983475D01*
X57926064Y-61976151D01*
X57939025Y-61952000D01*
X57940219Y-61946270D01*
X57957088Y-61918523D01*
X57987540Y-61884707D01*
X58021849Y-61842869D01*
X58049114Y-61782674D01*
X58066073Y-61702899D01*
X58074526Y-61597600D01*
X58071531Y-61501052D01*
X58053540Y-61383558D01*
X58022656Y-61267776D01*
X57981629Y-61163747D01*
X57933208Y-61081512D01*
X57909564Y-61047662D01*
X57874751Y-60993690D01*
X57839638Y-60935871D01*
X57801452Y-60877442D01*
X57749324Y-60807783D01*
X57697103Y-60746122D01*
X57691055Y-60739538D01*
X57646586Y-60689749D01*
X57609065Y-60645545D01*
X57586073Y-60615820D01*
X57554460Y-60568871D01*
X57482329Y-60459218D01*
X57426774Y-60369536D01*
X57385800Y-60295636D01*
X57357408Y-60233329D01*
X57339601Y-60178427D01*
X57330381Y-60126740D01*
X57327752Y-60074080D01*
X57328683Y-60027530D01*
X57334877Y-59990867D01*
X57350964Y-59965321D01*
X57381550Y-59939350D01*
X57392731Y-59931327D01*
X57435395Y-59907786D01*
X57469698Y-59898316D01*
X57507127Y-59903294D01*
X57572491Y-59925411D01*
X57639653Y-59959982D01*
X57695915Y-60001232D01*
X57696098Y-60001400D01*
X57725700Y-60037454D01*
X57762794Y-60095205D01*
X57803023Y-60166512D01*
X57842027Y-60243235D01*
X57875448Y-60317235D01*
X57898929Y-60380372D01*
X57912054Y-60410439D01*
X57938056Y-60460103D01*
X57972757Y-60522068D01*
X58012141Y-60589573D01*
X58052195Y-60655861D01*
X58088902Y-60714172D01*
X58118249Y-60757749D01*
X58136220Y-60779832D01*
X58143362Y-60784295D01*
X58167648Y-60787139D01*
X58207684Y-60778233D01*
X58270066Y-60756424D01*
X58279408Y-60752893D01*
X58348091Y-60725931D01*
X58390134Y-60703421D01*
X58406850Y-60679445D01*
X58399551Y-60648086D01*
X58369550Y-60603424D01*
X58318159Y-60539542D01*
X58238607Y-60434339D01*
X58170773Y-60321758D01*
X58123516Y-60208468D01*
X58095569Y-60088844D01*
X58085668Y-59957256D01*
X58092548Y-59808079D01*
X58114943Y-59635685D01*
X58117868Y-59617103D01*
X58130004Y-59532836D01*
X58139157Y-59457362D01*
X58144482Y-59398313D01*
X58145133Y-59363325D01*
X58141637Y-59336600D01*
X58131757Y-59319114D01*
X58107377Y-59313076D01*
X58059671Y-59313321D01*
X58034744Y-59314654D01*
X57962858Y-59322890D01*
X57894945Y-59335529D01*
X57853272Y-59344037D01*
X57810566Y-59344559D01*
X57778879Y-59327954D01*
X57751130Y-59289761D01*
X57720237Y-59225524D01*
X57708621Y-59195891D01*
X57689011Y-59125598D01*
X57671774Y-59032860D01*
X57655910Y-58912814D01*
X57649949Y-58858156D01*
X57638513Y-58714947D01*
X57637283Y-58596568D01*
X57647359Y-58498434D01*
X57669839Y-58415958D01*
X57705821Y-58344554D01*
X57756406Y-58279636D01*
X57822690Y-58216616D01*
X57855128Y-58188405D01*
X57913813Y-58132922D01*
X57965159Y-58075945D01*
X58016814Y-58008593D01*
X58076425Y-57921986D01*
X58081144Y-57914871D01*
X58112889Y-57863095D01*
X58124189Y-57834133D01*
X58115240Y-57826319D01*
X58086235Y-57837988D01*
X58057276Y-57848667D01*
X58011313Y-57855377D01*
X57997047Y-57856886D01*
X57951150Y-57870748D01*
X57901674Y-57894400D01*
X57862806Y-57913668D01*
X57797106Y-57939433D01*
X57729905Y-57960032D01*
X57651122Y-57980297D01*
X57560379Y-58005670D01*
X57489631Y-58030566D01*
X57432254Y-58059217D01*
X57381622Y-58095854D01*
X57331113Y-58144708D01*
X57274102Y-58210011D01*
X57203964Y-58295995D01*
X57145096Y-58370260D01*
X57098217Y-58435283D01*
X57070844Y-58485472D01*
X57062015Y-58525725D01*
X57070766Y-58560939D01*
X57096136Y-58596014D01*
X57137160Y-58635846D01*
X57199460Y-58701426D01*
X57235661Y-58764563D01*
X57246710Y-58828588D01*
X57246401Y-58839007D01*
X57235602Y-58889106D01*
X57206971Y-58925052D01*
X57157129Y-58948580D01*
X57082694Y-58961424D01*
X56980287Y-58965320D01*
X56919821Y-58965011D01*
X56867766Y-58962511D01*
X56824547Y-58955443D01*
X56780721Y-58941430D01*
X56726848Y-58918097D01*
X56653485Y-58883066D01*
X56567428Y-58839498D01*
X56489325Y-58793077D01*
X56426919Y-58745100D01*
X56372236Y-58689315D01*
X56317300Y-58619468D01*
X56296272Y-58590724D01*
X56266682Y-58550599D01*
X56244656Y-58521677D01*
X56222715Y-58494248D01*
X56193383Y-58458607D01*
X56153503Y-58410349D01*
X56153484Y-58455431D01*
X56059091Y-58455431D01*
X56049369Y-58397234D01*
X56043559Y-58358370D01*
X56033913Y-58285653D01*
X56027257Y-58224141D01*
X56024775Y-58184093D01*
X56026443Y-58153207D01*
X56037222Y-58133359D01*
X56063906Y-58128841D01*
X56090977Y-58134576D01*
X56114256Y-58164187D01*
X56118309Y-58174883D01*
X56127595Y-58192698D01*
X56143346Y-58217214D01*
X56167841Y-58251496D01*
X56203353Y-58298613D01*
X56252159Y-58361633D01*
X56316535Y-58443621D01*
X56398756Y-58547645D01*
X56402851Y-58552817D01*
X56454381Y-58617045D01*
X56494755Y-58663098D01*
X56531981Y-58697448D01*
X56574065Y-58726564D01*
X56629015Y-58756917D01*
X56704838Y-58794976D01*
X56721007Y-58802967D01*
X56796422Y-58839104D01*
X56852644Y-58862873D01*
X56897391Y-58876766D01*
X56938382Y-58883274D01*
X56983334Y-58884889D01*
X57043266Y-58882266D01*
X57085302Y-58872186D01*
X57115599Y-58852091D01*
X57140147Y-58825400D01*
X57150804Y-58805881D01*
X57143014Y-58792647D01*
X57116941Y-58763301D01*
X57078879Y-58726171D01*
X57021539Y-58667795D01*
X56981291Y-58608814D01*
X56963811Y-58550369D01*
X56965781Y-58485392D01*
X56967900Y-58473292D01*
X56993820Y-58398370D01*
X57044079Y-58315423D01*
X57120732Y-58220948D01*
X57147506Y-58190160D01*
X57194436Y-58134074D01*
X57239278Y-58078471D01*
X57255239Y-58058869D01*
X57303677Y-58009532D01*
X57358356Y-57972078D01*
X57427863Y-57941447D01*
X57520785Y-57912577D01*
X57538004Y-57907813D01*
X57636758Y-57879856D01*
X57710531Y-57857461D01*
X57764765Y-57838776D01*
X57804905Y-57821946D01*
X57836396Y-57805118D01*
X57856425Y-57794833D01*
X57911592Y-57774181D01*
X57971405Y-57758821D01*
X57998025Y-57752930D01*
X58065466Y-57732763D01*
X58123122Y-57709325D01*
X58186236Y-57686678D01*
X58245491Y-57681194D01*
X58277849Y-57686403D01*
X58298311Y-57701835D01*
X58305816Y-57736235D01*
X58305558Y-57761484D01*
X58290994Y-57802706D01*
X58254962Y-57852674D01*
X58237268Y-57874551D01*
X58195723Y-57930092D01*
X58162316Y-57979859D01*
X58132677Y-58025863D01*
X58026053Y-58162623D01*
X57905238Y-58281660D01*
X57862707Y-58318581D01*
X57816367Y-58363315D01*
X57784945Y-58403289D01*
X57761982Y-58447250D01*
X57741015Y-58503940D01*
X57732656Y-58530925D01*
X57725780Y-58563531D01*
X57723012Y-58600716D01*
X57724307Y-58649317D01*
X57729615Y-58716174D01*
X57738890Y-58808125D01*
X57745043Y-58865954D01*
X57754978Y-58953575D01*
X57763855Y-59019022D01*
X57772951Y-59068726D01*
X57783547Y-59109123D01*
X57796920Y-59146646D01*
X57814350Y-59187729D01*
X57831972Y-59223318D01*
X57851604Y-59246023D01*
X57871953Y-59246437D01*
X57897448Y-59237950D01*
X57960895Y-59224104D01*
X58033540Y-59214260D01*
X58102000Y-59210013D01*
X58152893Y-59212959D01*
X58167206Y-59216027D01*
X58208230Y-59234328D01*
X58230883Y-59267800D01*
X58238223Y-59302872D01*
X58240434Y-59370639D01*
X58235335Y-59460844D01*
X58223230Y-59568644D01*
X58204425Y-59689196D01*
X58200922Y-59709634D01*
X58181876Y-59867477D01*
X58182477Y-60005624D01*
X58204400Y-60130441D01*
X58249320Y-60248290D01*
X58318912Y-60365537D01*
X58414852Y-60488546D01*
X58437074Y-60514879D01*
X58492721Y-60587191D01*
X58525415Y-60643992D01*
X58533994Y-60679445D01*
X58536379Y-60689302D01*
X58526839Y-60727138D01*
X58498018Y-60761519D01*
X58469437Y-60780068D01*
X58418332Y-60805887D01*
X58353941Y-60834769D01*
X58284693Y-60863256D01*
X58219015Y-60887886D01*
X58165334Y-60905201D01*
X58132078Y-60911742D01*
X58103765Y-60899086D01*
X58063688Y-60859498D01*
X58015735Y-60795748D01*
X57962295Y-60710665D01*
X57942485Y-60676871D01*
X57914676Y-60629792D01*
X57895670Y-60598062D01*
X57894599Y-60596292D01*
X57871235Y-60553726D01*
X57841263Y-60494333D01*
X57810556Y-60430059D01*
X57784986Y-60372856D01*
X57752399Y-60297837D01*
X57706781Y-60202119D01*
X57665770Y-60130481D01*
X57626534Y-60078800D01*
X57586244Y-60042952D01*
X57542071Y-60018810D01*
X57520246Y-60010435D01*
X57484608Y-60004406D01*
X57455343Y-60015337D01*
X57432696Y-60034459D01*
X57412494Y-60079219D01*
X57421855Y-60129460D01*
X57423128Y-60132047D01*
X57441407Y-60172362D01*
X57461275Y-60220038D01*
X57466332Y-60231818D01*
X57495563Y-60287629D01*
X57538055Y-60358234D01*
X57588538Y-60435488D01*
X57641741Y-60511243D01*
X57692396Y-60577352D01*
X57723440Y-60615567D01*
X57774795Y-60678869D01*
X57822873Y-60738214D01*
X57865879Y-60792453D01*
X57969375Y-60936242D01*
X58048300Y-61070934D01*
X58104793Y-61202182D01*
X58140993Y-61335634D01*
X58159039Y-61476943D01*
X58161068Y-61631758D01*
X58159380Y-61693013D01*
X58158930Y-61756883D01*
X58161085Y-61794967D01*
X58166123Y-61810997D01*
X58174324Y-61808705D01*
X58185686Y-61793565D01*
X58211361Y-61751358D01*
X58244700Y-61691351D01*
X58282224Y-61620304D01*
X58320457Y-61544982D01*
X58355919Y-61472144D01*
X58385133Y-61408555D01*
X58404620Y-61360975D01*
X58408508Y-61350197D01*
X58431000Y-61287852D01*
X58458233Y-61212366D01*
X58485162Y-61137721D01*
X58493974Y-61112615D01*
X58514544Y-61047881D01*
X58528848Y-60993742D01*
X58534211Y-60959901D01*
X58537720Y-60936397D01*
X58559113Y-60883497D01*
X58593763Y-60826744D01*
X58634473Y-60777160D01*
X58674048Y-60745764D01*
X58677215Y-60744200D01*
X58725082Y-60725700D01*
X58790262Y-60706056D01*
X58860863Y-60688288D01*
X58924991Y-60675412D01*
X58970755Y-60670450D01*
X58995078Y-60675687D01*
X59040723Y-60696135D01*
X59090322Y-60726751D01*
X59127118Y-60751691D01*
X59164784Y-60774225D01*
X59185648Y-60782821D01*
X59195045Y-60775899D01*
X59218029Y-60744098D01*
X59250047Y-60690643D01*
X59288743Y-60620116D01*
X59331759Y-60537099D01*
X59376740Y-60446175D01*
X59421328Y-60351925D01*
X59463168Y-60258933D01*
X59499902Y-60171780D01*
X59508192Y-60149724D01*
X59533554Y-60065401D01*
X59558450Y-59960109D01*
X59581210Y-59842209D01*
X59600166Y-59720062D01*
X59613649Y-59602028D01*
X59613925Y-59598961D01*
X59622017Y-59511319D01*
X59632082Y-59405307D01*
X59642866Y-59294013D01*
X59653112Y-59190526D01*
X59661746Y-59093100D01*
X59673091Y-58867298D01*
X59672323Y-58648532D01*
X59659721Y-58442604D01*
X59635566Y-58255312D01*
X59600138Y-58092455D01*
X59597723Y-58083808D01*
X59576455Y-58020610D01*
X59554767Y-57985467D01*
X59529223Y-57974823D01*
X59496386Y-57985124D01*
X59476148Y-57998172D01*
X59426393Y-58041997D01*
X59365106Y-58106857D01*
X59295564Y-58188426D01*
X59221047Y-58282383D01*
X59144834Y-58384401D01*
X59070204Y-58490159D01*
X59000435Y-58595330D01*
X58938806Y-58695593D01*
X58888596Y-58786622D01*
X58872481Y-58818903D01*
X58783278Y-59028303D01*
X58705538Y-59267390D01*
X58639189Y-59536378D01*
X58635493Y-59553323D01*
X58616419Y-59632115D01*
X58596181Y-59704136D01*
X58576767Y-59763217D01*
X58560167Y-59803190D01*
X58548373Y-59817885D01*
X58547221Y-59818312D01*
X58534979Y-59836593D01*
X58516041Y-59876462D01*
X58493996Y-59930488D01*
X58478984Y-59969253D01*
X58460424Y-60011114D01*
X58443877Y-60033126D01*
X58423699Y-60041662D01*
X58394247Y-60043091D01*
X58337525Y-60043091D01*
X58351230Y-59966682D01*
X58355664Y-59936321D01*
X58361293Y-59833364D01*
X58357628Y-59701381D01*
X58344762Y-59541640D01*
X58322785Y-59355410D01*
X58291789Y-59143959D01*
X58282207Y-59091192D01*
X58262085Y-59023062D01*
X58232611Y-58975747D01*
X58188583Y-58942111D01*
X58124796Y-58915018D01*
X58111370Y-58909692D01*
X58056664Y-58878876D01*
X58008171Y-58840116D01*
X58002967Y-58834883D01*
X57972219Y-58797904D01*
X57958348Y-58760426D01*
X57955111Y-58706765D01*
X57961027Y-58644300D01*
X57981648Y-58581526D01*
X58020334Y-58512987D01*
X58080443Y-58431305D01*
X58107949Y-58394414D01*
X58155803Y-58324831D01*
X58212615Y-58237992D01*
X58274526Y-58140107D01*
X58337679Y-58037387D01*
X58398215Y-57936042D01*
X58452276Y-57842284D01*
X58496005Y-57762324D01*
X58516394Y-57724680D01*
X58558887Y-57651829D01*
X58600556Y-57586502D01*
X58634750Y-57539388D01*
X58659723Y-57507027D01*
X58688302Y-57456753D01*
X58692057Y-57418974D01*
X58671972Y-57389733D01*
X58651381Y-57379289D01*
X58616728Y-57387763D01*
X58601629Y-57393389D01*
X58556205Y-57401697D01*
X58501558Y-57404965D01*
X58442866Y-57399539D01*
X58380886Y-57377897D01*
X58339903Y-57342685D01*
X58325092Y-57297068D01*
X58325714Y-57288032D01*
X58342556Y-57236731D01*
X58379672Y-57170474D01*
X58433413Y-57093834D01*
X58500131Y-57011385D01*
X58576178Y-56927700D01*
X58657905Y-56847351D01*
X58741664Y-56774912D01*
X58796886Y-56734824D01*
X58870300Y-56688234D01*
X58953431Y-56640179D01*
X59040151Y-56593805D01*
X59124332Y-56552260D01*
X59199846Y-56518689D01*
X59260564Y-56496239D01*
X59300358Y-56488056D01*
X59308807Y-56488120D01*
X59341742Y-56492112D01*
X59361458Y-56507325D01*
X59373038Y-56540722D01*
X59381567Y-56599265D01*
X59382207Y-56604830D01*
X59384350Y-56657945D01*
X59374070Y-56701657D01*
X59347548Y-56753245D01*
X59345786Y-56756286D01*
X59323525Y-56799407D01*
X59299742Y-56852020D01*
X59277461Y-56906397D01*
X59259707Y-56954808D01*
X59249505Y-56989523D01*
X59249881Y-57002812D01*
X59257291Y-56999023D01*
X59286752Y-56980768D01*
X59332902Y-56950834D01*
X59389768Y-56913056D01*
X59409783Y-56899766D01*
X59521190Y-56830841D01*
X59627638Y-56773071D01*
X59724156Y-56728776D01*
X59805773Y-56700278D01*
X59867517Y-56689901D01*
X59938355Y-56689133D01*
X60039779Y-56833908D01*
X60042867Y-56838316D01*
X60118670Y-56946909D01*
X60178726Y-57033970D01*
X60225928Y-57103953D01*
X60263170Y-57161311D01*
X60293347Y-57210497D01*
X60319350Y-57255963D01*
X60344076Y-57302164D01*
X60347568Y-57308924D01*
X60378116Y-57373107D01*
X60403123Y-57433952D01*
X60417468Y-57479111D01*
X60425664Y-57516763D01*
X60439312Y-57580247D01*
X60453360Y-57646257D01*
X60462481Y-57685575D01*
X60480176Y-57755481D01*
X60503302Y-57842827D01*
X60529904Y-57940245D01*
X60558025Y-58040368D01*
X60585112Y-58137441D01*
X60613599Y-58247616D01*
X60636293Y-58349032D01*
X60653933Y-58447536D01*
X60667258Y-58548973D01*
X60677010Y-58659191D01*
X60683926Y-58784035D01*
X60688748Y-58929353D01*
X60692214Y-59100991D01*
X60692899Y-59149238D01*
X60692901Y-59153831D01*
X60692988Y-59411814D01*
G37*
G36*
X55676181Y-58599210D02*
G01*
X55649334Y-58726734D01*
X55621767Y-58829485D01*
X55592512Y-58910716D01*
X55560603Y-58973678D01*
X55525074Y-59021622D01*
X55500005Y-59052951D01*
X55461132Y-59109524D01*
X55416858Y-59180059D01*
X55370444Y-59258700D01*
X55325153Y-59339589D01*
X55284247Y-59416869D01*
X55250990Y-59484683D01*
X55228643Y-59537172D01*
X55220469Y-59568482D01*
X55215305Y-59585957D01*
X55197303Y-59627467D01*
X55169468Y-59685405D01*
X55135020Y-59753429D01*
X55097184Y-59825200D01*
X55059180Y-59894376D01*
X55024232Y-59954617D01*
X54940105Y-60113087D01*
X54870893Y-60287630D01*
X54826722Y-60458062D01*
X54822391Y-60481311D01*
X54806708Y-60562738D01*
X54788510Y-60654343D01*
X54770911Y-60740371D01*
X54756957Y-60818069D01*
X54743887Y-60932011D01*
X54739716Y-61039188D01*
X54744650Y-61131611D01*
X54758900Y-61201292D01*
X54770600Y-61229967D01*
X54793033Y-61253816D01*
X54831800Y-61262740D01*
X54856063Y-61261560D01*
X54908536Y-61239090D01*
X54957538Y-61195175D01*
X54996426Y-61136659D01*
X55018555Y-61070385D01*
X55019560Y-61063054D01*
X55023041Y-61020267D01*
X55026811Y-60951459D01*
X55030681Y-60861311D01*
X55034465Y-60754497D01*
X55037974Y-60635697D01*
X55041022Y-60509589D01*
X55042130Y-60460915D01*
X55045397Y-60341203D01*
X55049107Y-60233085D01*
X55053070Y-60140676D01*
X55057096Y-60068092D01*
X55060995Y-60019446D01*
X55064578Y-59998854D01*
X55069973Y-59993324D01*
X55103029Y-59982015D01*
X55151669Y-59979662D01*
X55204332Y-59986116D01*
X55249456Y-60001229D01*
X55271836Y-60014072D01*
X55312008Y-60048731D01*
X55343515Y-60098486D01*
X55372444Y-60171780D01*
X55384068Y-60204351D01*
X55411569Y-60273435D01*
X55438452Y-60332915D01*
X55438478Y-60332967D01*
X55461567Y-60383891D01*
X55491968Y-60457237D01*
X55526624Y-60544984D01*
X55562481Y-60639112D01*
X55596484Y-60731600D01*
X55625575Y-60814426D01*
X55646700Y-60879570D01*
X55655302Y-60922715D01*
X55663016Y-60996207D01*
X55668564Y-61089567D01*
X55671945Y-61196297D01*
X55673158Y-61309904D01*
X55672204Y-61423890D01*
X55669082Y-61531760D01*
X55663793Y-61627019D01*
X55656337Y-61703170D01*
X55646713Y-61753717D01*
X55634072Y-61791874D01*
X55593506Y-61884199D01*
X55536569Y-61980043D01*
X55460690Y-62083032D01*
X55363300Y-62196792D01*
X55241828Y-62324947D01*
X55238043Y-62328811D01*
X55189344Y-62381238D01*
X55145755Y-62432530D01*
X55116308Y-62472097D01*
X55101632Y-62492571D01*
X55064173Y-62538632D01*
X55015139Y-62594625D01*
X54961311Y-62652652D01*
X54928517Y-62687214D01*
X54872478Y-62747418D01*
X54823113Y-62801770D01*
X54788299Y-62841664D01*
X54785974Y-62844413D01*
X54731574Y-62891311D01*
X54676783Y-62906420D01*
X54622738Y-62890071D01*
X54570579Y-62842594D01*
X54521448Y-62764320D01*
X54481705Y-62676019D01*
X54441317Y-62549677D01*
X54415309Y-62409370D01*
X54401784Y-62246891D01*
X54392033Y-62029728D01*
X54299688Y-62007802D01*
X54289634Y-62005499D01*
X54193691Y-61994278D01*
X54114655Y-62007716D01*
X54109137Y-62010940D01*
X54048354Y-62046454D01*
X54041773Y-62051643D01*
X53978841Y-62079730D01*
X53898907Y-62086438D01*
X53808804Y-62071066D01*
X53803082Y-62069473D01*
X53770095Y-62062629D01*
X53756631Y-62064146D01*
X53756639Y-62064604D01*
X53768284Y-62091661D01*
X53798441Y-62134322D01*
X53841859Y-62186807D01*
X53893289Y-62243340D01*
X53947481Y-62298144D01*
X53999185Y-62345440D01*
X54043151Y-62379453D01*
X54054755Y-62387590D01*
X54107839Y-62431266D01*
X54172023Y-62491131D01*
X54240388Y-62560039D01*
X54306017Y-62630842D01*
X54361990Y-62696393D01*
X54401390Y-62749544D01*
X54433735Y-62802091D01*
X54453599Y-62844616D01*
X54461461Y-62883473D01*
X54461115Y-62930131D01*
X54456377Y-63010982D01*
X54371792Y-63015849D01*
X54329512Y-63017042D01*
X54291608Y-63011307D01*
X54256477Y-62993202D01*
X54210931Y-62957982D01*
X54152337Y-62914474D01*
X54064456Y-62859295D01*
X53969482Y-62807925D01*
X53877984Y-62765999D01*
X53800531Y-62739153D01*
X53794203Y-62737538D01*
X53695104Y-62718560D01*
X53585124Y-62706852D01*
X53478053Y-62703412D01*
X53387682Y-62709240D01*
X53300241Y-62721432D01*
X53279952Y-62801035D01*
X53273984Y-62832723D01*
X53269614Y-62916220D01*
X53275613Y-63012517D01*
X53290963Y-63110003D01*
X53314647Y-63197062D01*
X53320252Y-63213731D01*
X53333213Y-63260124D01*
X53338391Y-63291942D01*
X53342736Y-63313591D01*
X53360573Y-63360163D01*
X53387864Y-63417850D01*
X53419894Y-63477486D01*
X53451951Y-63529908D01*
X53479321Y-63565953D01*
X53480234Y-63566928D01*
X53509885Y-63603482D01*
X53550206Y-63659320D01*
X53596264Y-63726894D01*
X53643125Y-63798653D01*
X53685855Y-63867048D01*
X53719519Y-63924531D01*
X53739183Y-63963552D01*
X53739971Y-63965475D01*
X53761474Y-64006758D01*
X53783847Y-64035013D01*
X53804400Y-64059387D01*
X53835087Y-64110421D01*
X53868776Y-64177649D01*
X53901808Y-64253154D01*
X53930525Y-64329017D01*
X53951269Y-64397322D01*
X53953439Y-64405691D01*
X53975396Y-64475518D01*
X54004773Y-64552350D01*
X54037446Y-64626718D01*
X54069295Y-64689155D01*
X54096195Y-64730193D01*
X54099334Y-64734146D01*
X54119475Y-64761904D01*
X54150614Y-64806497D01*
X54187441Y-64860350D01*
X54201441Y-64880813D01*
X54236351Y-64928229D01*
X54270333Y-64965616D01*
X54310665Y-64999359D01*
X54364627Y-65035843D01*
X54439496Y-65081452D01*
X54479962Y-65106873D01*
X54502749Y-65129790D01*
X54511349Y-65160401D01*
X54512679Y-65210946D01*
X54512196Y-65222625D01*
X54511314Y-65243945D01*
X54504318Y-65289947D01*
X54493375Y-65316124D01*
X54487075Y-65320894D01*
X54448674Y-65332131D01*
X54394035Y-65334509D01*
X54334579Y-65328180D01*
X54281733Y-65313297D01*
X54254823Y-65300200D01*
X54202780Y-65269972D01*
X54149539Y-65234697D01*
X54140351Y-65228304D01*
X54082801Y-65191879D01*
X54012082Y-65151148D01*
X53941403Y-65113785D01*
X53927081Y-65106550D01*
X53872753Y-65076757D01*
X53826201Y-65045384D01*
X53780379Y-65006610D01*
X53728238Y-64954612D01*
X53662732Y-64883569D01*
X53653795Y-64873629D01*
X53594843Y-64805785D01*
X53541080Y-64740311D01*
X53498121Y-64684230D01*
X53471584Y-64644566D01*
X53445883Y-64599940D01*
X53371094Y-64478225D01*
X53295687Y-64366227D01*
X53226248Y-64273898D01*
X53145253Y-64162718D01*
X53053375Y-64005165D01*
X52976466Y-63836530D01*
X52918664Y-63666135D01*
X52884109Y-63503303D01*
X52882477Y-63490469D01*
X52876218Y-63422071D01*
X52870802Y-63333973D01*
X52866763Y-63236153D01*
X52864634Y-63138591D01*
X52863291Y-63046305D01*
X52860946Y-62976359D01*
X52856871Y-62926693D01*
X52850298Y-62891248D01*
X52840458Y-62863971D01*
X52826583Y-62838805D01*
X52823158Y-62833447D01*
X52777597Y-62785753D01*
X52725239Y-62762554D01*
X52672810Y-62762504D01*
X52627034Y-62784254D01*
X52594637Y-62826457D01*
X52582343Y-62887763D01*
X52582415Y-62892185D01*
X52587464Y-62941115D01*
X52598899Y-63006452D01*
X52614515Y-63075326D01*
X52621380Y-63104003D01*
X52637319Y-63192174D01*
X52645634Y-63276068D01*
X52645708Y-63346862D01*
X52636924Y-63395733D01*
X52630392Y-63405527D01*
X52601934Y-63417547D01*
X52547915Y-63421178D01*
X52523094Y-63419971D01*
X52433260Y-63399016D01*
X52346215Y-63356436D01*
X52274772Y-63298011D01*
X52222530Y-63236377D01*
X52157462Y-63149662D01*
X52093299Y-63055406D01*
X52037051Y-62963970D01*
X51995727Y-62885711D01*
X51985498Y-62863552D01*
X51910714Y-62699502D01*
X51849024Y-62558804D01*
X51799117Y-62436709D01*
X51759683Y-62328471D01*
X51729411Y-62229343D01*
X51706992Y-62134577D01*
X51691115Y-62039425D01*
X51680470Y-61939142D01*
X51673747Y-61828978D01*
X51669636Y-61704188D01*
X51669630Y-61703936D01*
X51667159Y-61593138D01*
X51666026Y-61510287D01*
X51666469Y-61451183D01*
X51668729Y-61411627D01*
X51673044Y-61387421D01*
X51679655Y-61374366D01*
X51688802Y-61368263D01*
X51714224Y-61365372D01*
X51761125Y-61385822D01*
X51815920Y-61436465D01*
X51878126Y-61516818D01*
X51947263Y-61626401D01*
X51974779Y-61668300D01*
X52030271Y-61737280D01*
X52094105Y-61803828D01*
X52157991Y-61859554D01*
X52213641Y-61896068D01*
X52214022Y-61896256D01*
X52256984Y-61916908D01*
X52316371Y-61944753D01*
X52379449Y-61973821D01*
X52490234Y-62024373D01*
X52564439Y-61996580D01*
X52655148Y-61958795D01*
X52739797Y-61910979D01*
X52798394Y-61858536D01*
X52834296Y-61798305D01*
X52850864Y-61727126D01*
X52860087Y-61637761D01*
X52765452Y-61612581D01*
X52726132Y-61601665D01*
X52656576Y-61580761D01*
X52598429Y-61561524D01*
X52556880Y-61547530D01*
X52489005Y-61526440D01*
X52420895Y-61506800D01*
X52369702Y-61490846D01*
X52296530Y-61463208D01*
X52235904Y-61435226D01*
X52234742Y-61434600D01*
X52168704Y-61389688D01*
X52093339Y-61323743D01*
X52014958Y-61243644D01*
X51939872Y-61156270D01*
X51874394Y-61068500D01*
X51824834Y-60987213D01*
X51804417Y-60949523D01*
X51763357Y-60886309D01*
X51724942Y-60849034D01*
X51684870Y-60834256D01*
X51638836Y-60838536D01*
X51618917Y-60846334D01*
X51571582Y-60878751D01*
X51523400Y-60925147D01*
X51483828Y-60975754D01*
X51462324Y-61020806D01*
X51451645Y-61056074D01*
X51428026Y-61095260D01*
X51399959Y-61106007D01*
X51369194Y-61090186D01*
X51337482Y-61049666D01*
X51306575Y-60986316D01*
X51278224Y-60902006D01*
X51254179Y-60798605D01*
X51253458Y-60794837D01*
X51235275Y-60711827D01*
X51212563Y-60623677D01*
X51190061Y-60548851D01*
X51183619Y-60528924D01*
X51150366Y-60398810D01*
X51122328Y-60239875D01*
X51099716Y-60054636D01*
X51082743Y-59845610D01*
X51071622Y-59615315D01*
X51066566Y-59366270D01*
X51067072Y-59256340D01*
X51152430Y-59256340D01*
X51157098Y-59459853D01*
X51166665Y-59689196D01*
X51168840Y-59731936D01*
X51179959Y-59909680D01*
X51193519Y-60061439D01*
X51210262Y-60192261D01*
X51230926Y-60307194D01*
X51256252Y-60411287D01*
X51286982Y-60509589D01*
X51304645Y-60564149D01*
X51322861Y-60628675D01*
X51334073Y-60678493D01*
X51336001Y-60689891D01*
X51354020Y-60789271D01*
X51369216Y-60858342D01*
X51381979Y-60898650D01*
X51392697Y-60911742D01*
X51394327Y-60911480D01*
X51411863Y-60895468D01*
X51432818Y-60862259D01*
X51436518Y-60855643D01*
X51479221Y-60809568D01*
X51541231Y-60772980D01*
X51613765Y-60748127D01*
X51688042Y-60737259D01*
X51755282Y-60742625D01*
X51806703Y-60766476D01*
X51815037Y-60774711D01*
X51843598Y-60811546D01*
X51878845Y-60864993D01*
X51915011Y-60926530D01*
X51929664Y-60952581D01*
X51964441Y-61011246D01*
X51994650Y-61058150D01*
X52015034Y-61084964D01*
X52037427Y-61108701D01*
X52074628Y-61149314D01*
X52116608Y-61195955D01*
X52126633Y-61206930D01*
X52199123Y-61274783D01*
X52279052Y-61333559D01*
X52357751Y-61377525D01*
X52426554Y-61400948D01*
X52431550Y-61401932D01*
X52479996Y-61414401D01*
X52544155Y-61434108D01*
X52611545Y-61457255D01*
X52617162Y-61459290D01*
X52688946Y-61483938D01*
X52759884Y-61506254D01*
X52815384Y-61521632D01*
X52864942Y-61535987D01*
X52916666Y-61562720D01*
X52944114Y-61599308D01*
X52951989Y-61650175D01*
X52948137Y-61706771D01*
X52936667Y-61778064D01*
X52920012Y-61847415D01*
X52900633Y-61904774D01*
X52880992Y-61940088D01*
X52873099Y-61947333D01*
X52836675Y-61972611D01*
X52783050Y-62004198D01*
X52720757Y-62036938D01*
X52638405Y-62074475D01*
X52566691Y-62097119D01*
X52500038Y-62103391D01*
X52430422Y-62093022D01*
X52349819Y-62065747D01*
X52250205Y-62021299D01*
X52138646Y-61961950D01*
X52026900Y-61882639D01*
X51936201Y-61790758D01*
X51860511Y-61681038D01*
X51837378Y-61642642D01*
X51804436Y-61591471D01*
X51778580Y-61555187D01*
X51746580Y-61514972D01*
X51746461Y-61555187D01*
X51746532Y-61560443D01*
X51748183Y-61598173D01*
X51751687Y-61658896D01*
X51756611Y-61735434D01*
X51762521Y-61820608D01*
X51767104Y-61876958D01*
X51784339Y-62017054D01*
X51810700Y-62149425D01*
X51848477Y-62282621D01*
X51899961Y-62425190D01*
X51967440Y-62585681D01*
X51977067Y-62607415D01*
X52026231Y-62717120D01*
X52066789Y-62804147D01*
X52102030Y-62874451D01*
X52135239Y-62933985D01*
X52169705Y-62988702D01*
X52208713Y-63044555D01*
X52255552Y-63107499D01*
X52288713Y-63150240D01*
X52345791Y-63216605D01*
X52396168Y-63263328D01*
X52445611Y-63296135D01*
X52480128Y-63314394D01*
X52518395Y-63333008D01*
X52538106Y-63340372D01*
X52546518Y-63331073D01*
X52549781Y-63296487D01*
X52545691Y-63242308D01*
X52534790Y-63174880D01*
X52517620Y-63100543D01*
X52515688Y-63093167D01*
X52492190Y-62966893D01*
X52489741Y-62854720D01*
X52508474Y-62761647D01*
X52523221Y-62733566D01*
X52570093Y-62693214D01*
X52637479Y-62671117D01*
X52720101Y-62669573D01*
X52728970Y-62670602D01*
X52810181Y-62690580D01*
X52869983Y-62729765D01*
X52914996Y-62792328D01*
X52924403Y-62811019D01*
X52936894Y-62842358D01*
X52945017Y-62877785D01*
X52949686Y-62924318D01*
X52951817Y-62988976D01*
X52952324Y-63078779D01*
X52952372Y-63097350D01*
X52959753Y-63300862D01*
X52979362Y-63483929D01*
X53010724Y-63643264D01*
X53053361Y-63775579D01*
X53077655Y-63831318D01*
X53146537Y-63965841D01*
X53226949Y-64098230D01*
X53310238Y-64213728D01*
X53341089Y-64254216D01*
X53392995Y-64327781D01*
X53447496Y-64409994D01*
X53496886Y-64489468D01*
X53521256Y-64528686D01*
X53587777Y-64625635D01*
X53663001Y-64724825D01*
X53736777Y-64812583D01*
X53796546Y-64877584D01*
X53849304Y-64929941D01*
X53896641Y-64969197D01*
X53946196Y-65001628D01*
X54005607Y-65033512D01*
X54014201Y-65037882D01*
X54091028Y-65079502D01*
X54170499Y-65126155D01*
X54236705Y-65168544D01*
X54280360Y-65195845D01*
X54338243Y-65224152D01*
X54386660Y-65239104D01*
X54419899Y-65239122D01*
X54432248Y-65222625D01*
X54420865Y-65208133D01*
X54389893Y-65182774D01*
X54347959Y-65152815D01*
X54303725Y-65124135D01*
X54265851Y-65102616D01*
X54242997Y-65094136D01*
X54238026Y-65093214D01*
X54209748Y-65072405D01*
X54168804Y-65025843D01*
X54116982Y-64955727D01*
X54056069Y-64864255D01*
X53994485Y-64765436D01*
X53944089Y-64677254D01*
X53907262Y-64601822D01*
X53880818Y-64532564D01*
X53861567Y-64462899D01*
X53826109Y-64349181D01*
X53765247Y-64215469D01*
X53686107Y-64083115D01*
X53658286Y-64040298D01*
X53636348Y-64002976D01*
X53627942Y-63983593D01*
X53621683Y-63968762D01*
X53599114Y-63930793D01*
X53562942Y-63875095D01*
X53516154Y-63806144D01*
X53461742Y-63728415D01*
X53402695Y-63646384D01*
X53379200Y-63613828D01*
X53334576Y-63547703D01*
X53300998Y-63488033D01*
X53274132Y-63425316D01*
X53249646Y-63350052D01*
X53223207Y-63252737D01*
X53193507Y-63110701D01*
X53178282Y-62964089D01*
X53180923Y-62831175D01*
X53201687Y-62718313D01*
X53207937Y-62698044D01*
X53224520Y-62657794D01*
X53244809Y-62637067D01*
X53276085Y-62626920D01*
X53279822Y-62626210D01*
X53339362Y-62619945D01*
X53420680Y-62617452D01*
X53514429Y-62618482D01*
X53611259Y-62622787D01*
X53701822Y-62630118D01*
X53776770Y-62640227D01*
X53856210Y-62659994D01*
X53966672Y-62700274D01*
X54080525Y-62753202D01*
X54186736Y-62813549D01*
X54274273Y-62876084D01*
X54283986Y-62884126D01*
X54327817Y-62918981D01*
X54353250Y-62934865D01*
X54365031Y-62933916D01*
X54367904Y-62918272D01*
X54365588Y-62905076D01*
X54344708Y-62862176D01*
X54305503Y-62805031D01*
X54252106Y-62738391D01*
X54188654Y-62667006D01*
X54119281Y-62595626D01*
X54048122Y-62529002D01*
X53979313Y-62471883D01*
X53958916Y-62456052D01*
X53887881Y-62396588D01*
X53824684Y-62334785D01*
X53763574Y-62264133D01*
X53698805Y-62178123D01*
X53624627Y-62070245D01*
X53570408Y-61987489D01*
X53562376Y-61974480D01*
X53692408Y-61974480D01*
X53706320Y-61993534D01*
X53721043Y-62010692D01*
X53734471Y-62021685D01*
X53737294Y-62021421D01*
X53737403Y-62010940D01*
X53712394Y-61987461D01*
X53700738Y-61978475D01*
X53692408Y-61974480D01*
X53562376Y-61974480D01*
X53471022Y-61826511D01*
X53385272Y-61674638D01*
X53315847Y-61536752D01*
X53265434Y-61417736D01*
X53225651Y-61309740D01*
X53194062Y-61222108D01*
X53171021Y-61155312D01*
X53154974Y-61104673D01*
X53144363Y-61065508D01*
X53137635Y-61033136D01*
X53131096Y-61001205D01*
X53098283Y-60913683D01*
X53045449Y-60848640D01*
X52969584Y-60803191D01*
X52867680Y-60774455D01*
X52837026Y-60770692D01*
X52804562Y-60774951D01*
X52767272Y-60792063D01*
X52714861Y-60825463D01*
X52713766Y-60826201D01*
X52667024Y-60858864D01*
X52632356Y-60885239D01*
X52617196Y-60899677D01*
X52614172Y-60903371D01*
X52589157Y-60910631D01*
X52553858Y-60909304D01*
X52524342Y-60899431D01*
X52515925Y-60890294D01*
X52493509Y-60859270D01*
X52463766Y-60814557D01*
X52431781Y-60764214D01*
X52402639Y-60716297D01*
X52381425Y-60678865D01*
X52373223Y-60659974D01*
X52371486Y-60654985D01*
X52358860Y-60625906D01*
X52336015Y-60575639D01*
X52305336Y-60509396D01*
X52269204Y-60432391D01*
X52255425Y-60402866D01*
X52211507Y-60302708D01*
X52174140Y-60205324D01*
X52142417Y-60106347D01*
X52115426Y-60001409D01*
X52092258Y-59886144D01*
X52072003Y-59756183D01*
X52053751Y-59607160D01*
X52036592Y-59434708D01*
X52019617Y-59234459D01*
X52012776Y-59127749D01*
X52007756Y-59003968D01*
X52004779Y-58872568D01*
X52003838Y-58740168D01*
X52004929Y-58613392D01*
X52008046Y-58498860D01*
X52013184Y-58403194D01*
X52020338Y-58333017D01*
X52029652Y-58270399D01*
X52041468Y-58191820D01*
X52051459Y-58126224D01*
X52059150Y-58084181D01*
X52081670Y-58001878D01*
X52110383Y-57933191D01*
X52142422Y-57884276D01*
X52174917Y-57861287D01*
X52218750Y-57861477D01*
X52277607Y-57877410D01*
X52338398Y-57905113D01*
X52389371Y-57940258D01*
X52412980Y-57964051D01*
X52451661Y-58006096D01*
X52499228Y-58059389D01*
X52549755Y-58117151D01*
X52597314Y-58172607D01*
X52635977Y-58218978D01*
X52659819Y-58249487D01*
X52670302Y-58264971D01*
X52695387Y-58302693D01*
X52730538Y-58355872D01*
X52771703Y-58418392D01*
X52807386Y-58472617D01*
X52844948Y-58529547D01*
X52873489Y-58572629D01*
X52888692Y-58595339D01*
X52919358Y-58643716D01*
X52980770Y-58761416D01*
X53040936Y-58902970D01*
X53097810Y-59062876D01*
X53149349Y-59235631D01*
X53193507Y-59415732D01*
X53200146Y-59445426D01*
X53219064Y-59524796D01*
X53238040Y-59598256D01*
X53253817Y-59653002D01*
X53253929Y-59653354D01*
X53273273Y-59704852D01*
X53289988Y-59732980D01*
X53301783Y-59735282D01*
X53306365Y-59709304D01*
X53306369Y-59708832D01*
X53308472Y-59677861D01*
X53313865Y-59621858D01*
X53321783Y-59547502D01*
X53331459Y-59461474D01*
X53342124Y-59370452D01*
X53353014Y-59281116D01*
X53363359Y-59200147D01*
X53372394Y-59134224D01*
X53387905Y-59048148D01*
X53413515Y-58965883D01*
X53449169Y-58906352D01*
X53498114Y-58864475D01*
X53563597Y-58835172D01*
X53606152Y-58816534D01*
X53667726Y-58772634D01*
X53710293Y-58720235D01*
X53713124Y-58709387D01*
X53708319Y-58671418D01*
X53691921Y-58624886D01*
X53668842Y-58582035D01*
X53644000Y-58555106D01*
X53639251Y-58551195D01*
X53615261Y-58522481D01*
X53578774Y-58471658D01*
X53532494Y-58403034D01*
X53479123Y-58320918D01*
X53421368Y-58229618D01*
X53361930Y-58133444D01*
X53303515Y-58036704D01*
X53248827Y-57943706D01*
X53200568Y-57858759D01*
X53161444Y-57786172D01*
X53126951Y-57724825D01*
X53084383Y-57657863D01*
X53045703Y-57604887D01*
X53024132Y-57575405D01*
X52986834Y-57500470D01*
X52969857Y-57424733D01*
X52976005Y-57358119D01*
X52982509Y-57344746D01*
X53016353Y-57311639D01*
X53064801Y-57286350D01*
X53115266Y-57276276D01*
X53155138Y-57281603D01*
X53202110Y-57294716D01*
X53249989Y-57304538D01*
X53295755Y-57302451D01*
X53338406Y-57291746D01*
X53295668Y-57223688D01*
X53252705Y-57163844D01*
X53189101Y-57088066D01*
X53113653Y-57006817D01*
X53033271Y-56927517D01*
X52954863Y-56857591D01*
X52904814Y-56820047D01*
X52831726Y-56771960D01*
X52748817Y-56722285D01*
X52666132Y-56677295D01*
X52633871Y-56660923D01*
X52557727Y-56624403D01*
X52506413Y-56604721D01*
X52477820Y-56602186D01*
X52469836Y-56617108D01*
X52480353Y-56649794D01*
X52507261Y-56700553D01*
X52513978Y-56713008D01*
X52539180Y-56768066D01*
X52566907Y-56838081D01*
X52592275Y-56910969D01*
X52596881Y-56925476D01*
X52618070Y-57001434D01*
X52624813Y-57053448D01*
X52616098Y-57086150D01*
X52590911Y-57104171D01*
X52548236Y-57112143D01*
X52529778Y-57112372D01*
X52498478Y-57105910D01*
X52459155Y-57088650D01*
X52405874Y-57057797D01*
X52332703Y-57010553D01*
X52280946Y-56977253D01*
X52194851Y-56924964D01*
X52110019Y-56876544D01*
X52038986Y-56839303D01*
X52003412Y-56822121D01*
X51946532Y-56797421D01*
X51907467Y-56788937D01*
X51878862Y-56797781D01*
X51853359Y-56825068D01*
X51823601Y-56871910D01*
X51823596Y-56871918D01*
X51795539Y-56914619D01*
X51755881Y-56970312D01*
X51713205Y-57026941D01*
X51676370Y-57076653D01*
X51621983Y-57156640D01*
X51567378Y-57243169D01*
X51517429Y-57328166D01*
X51477012Y-57403557D01*
X51451000Y-57461267D01*
X51438921Y-57498852D01*
X51422082Y-57563394D01*
X51407917Y-57630171D01*
X51406704Y-57636520D01*
X51394981Y-57688961D01*
X51376269Y-57764555D01*
X51352275Y-57856727D01*
X51324702Y-57958900D01*
X51295259Y-58064497D01*
X51288182Y-58089521D01*
X51255717Y-58207330D01*
X51231032Y-58304447D01*
X51212433Y-58389257D01*
X51198226Y-58470144D01*
X51186715Y-58555494D01*
X51176208Y-58653691D01*
X51168379Y-58741016D01*
X51158016Y-58902897D01*
X51152718Y-59072680D01*
X51152430Y-59256340D01*
X51067072Y-59256340D01*
X51067786Y-59100991D01*
X51070437Y-58963022D01*
X51074912Y-58812661D01*
X51081327Y-58684002D01*
X51090422Y-58571197D01*
X51102936Y-58468401D01*
X51119608Y-58369766D01*
X51141179Y-58269447D01*
X51168388Y-58161596D01*
X51201974Y-58040368D01*
X51225227Y-57957785D01*
X51252237Y-57859361D01*
X51276113Y-57769720D01*
X51294899Y-57696229D01*
X51306639Y-57646257D01*
X51317629Y-57594562D01*
X51331651Y-57529191D01*
X51342532Y-57479111D01*
X51343434Y-57475277D01*
X51359208Y-57427779D01*
X51385078Y-57365958D01*
X51415924Y-57302164D01*
X51416834Y-57300421D01*
X51441555Y-57254325D01*
X51467659Y-57208801D01*
X51498041Y-57159397D01*
X51535595Y-57101658D01*
X51583213Y-57031132D01*
X51643791Y-56943367D01*
X51720221Y-56833908D01*
X51821645Y-56689133D01*
X51892483Y-56689901D01*
X51901819Y-56690321D01*
X51967473Y-56704101D01*
X52052112Y-56735586D01*
X52150765Y-56782455D01*
X52258462Y-56842386D01*
X52370231Y-56913056D01*
X52408869Y-56938812D01*
X52459291Y-56971812D01*
X52495032Y-56994423D01*
X52510119Y-57002812D01*
X52510647Y-57002703D01*
X52509985Y-56987247D01*
X52499008Y-56951037D01*
X52480741Y-56901802D01*
X52458209Y-56847272D01*
X52434438Y-56795176D01*
X52412452Y-56753245D01*
X52409438Y-56748067D01*
X52384463Y-56697836D01*
X52375400Y-56653994D01*
X52378433Y-56599265D01*
X52380107Y-56585467D01*
X52388833Y-56532407D01*
X52401608Y-56503126D01*
X52423517Y-56490663D01*
X52459642Y-56488056D01*
X52496962Y-56495484D01*
X52556802Y-56517311D01*
X52631737Y-56550413D01*
X52715637Y-56591643D01*
X52802376Y-56637854D01*
X52885824Y-56685900D01*
X52959853Y-56732635D01*
X53018336Y-56774912D01*
X53037217Y-56790324D01*
X53120837Y-56864947D01*
X53201601Y-56946448D01*
X53275863Y-57030254D01*
X53339972Y-57111792D01*
X53390282Y-57186489D01*
X53423144Y-57249772D01*
X53434908Y-57297068D01*
X53426033Y-57332954D01*
X53390637Y-57370851D01*
X53333048Y-57395910D01*
X53258441Y-57404965D01*
X53229513Y-57404015D01*
X53177837Y-57397820D01*
X53143272Y-57387763D01*
X53117896Y-57378959D01*
X53088028Y-57389733D01*
X53074678Y-57404102D01*
X53066856Y-57437286D01*
X53083385Y-57481063D01*
X53125250Y-57539388D01*
X53141855Y-57561188D01*
X53180802Y-57619194D01*
X53223733Y-57689802D01*
X53263995Y-57762324D01*
X53295395Y-57820259D01*
X53347179Y-57911078D01*
X53406425Y-58011072D01*
X53469276Y-58114032D01*
X53531872Y-58213745D01*
X53590357Y-58304003D01*
X53640871Y-58378593D01*
X53679557Y-58431305D01*
X53738268Y-58510880D01*
X53777517Y-58579691D01*
X53798606Y-58642527D01*
X53804889Y-58706765D01*
X53804855Y-58714699D01*
X53800655Y-58765548D01*
X53785061Y-58802125D01*
X53751829Y-58840116D01*
X53740250Y-58850849D01*
X53687966Y-58888748D01*
X53635204Y-58915018D01*
X53594935Y-58930595D01*
X53543419Y-58960679D01*
X53508596Y-59001511D01*
X53485262Y-59060226D01*
X53468211Y-59143959D01*
X53455748Y-59224713D01*
X53428065Y-59427020D01*
X53409433Y-59603639D01*
X53399946Y-59753301D01*
X53399694Y-59874738D01*
X53408770Y-59966682D01*
X53422475Y-60043091D01*
X53365753Y-60043091D01*
X53346075Y-60042695D01*
X53323043Y-60037606D01*
X53305784Y-60021455D01*
X53288652Y-59987873D01*
X53266004Y-59930488D01*
X53262213Y-59920679D01*
X53240441Y-59868525D01*
X53222383Y-59831783D01*
X53211627Y-59817885D01*
X53209633Y-59817192D01*
X53196656Y-59796637D01*
X53179296Y-59752110D01*
X53159541Y-59689778D01*
X53139383Y-59615811D01*
X53120811Y-59536378D01*
X53110458Y-59489090D01*
X53042200Y-59225141D01*
X52962539Y-58991056D01*
X52871403Y-58786622D01*
X52846903Y-58740673D01*
X52790343Y-58644299D01*
X52724069Y-58540943D01*
X52651361Y-58434926D01*
X52575498Y-58330575D01*
X52499758Y-58232212D01*
X52427421Y-58144162D01*
X52361765Y-58070748D01*
X52306070Y-58016294D01*
X52263614Y-57985124D01*
X52259615Y-57983112D01*
X52227731Y-57974900D01*
X52202768Y-57988017D01*
X52181291Y-58026017D01*
X52159862Y-58092455D01*
X52143326Y-58158842D01*
X52112692Y-58332874D01*
X52093451Y-58528858D01*
X52085883Y-58740995D01*
X52090269Y-58963484D01*
X52106888Y-59190526D01*
X52107288Y-59194520D01*
X52117583Y-59298595D01*
X52128361Y-59409930D01*
X52138369Y-59515437D01*
X52146351Y-59602028D01*
X52150145Y-59640502D01*
X52165643Y-59760841D01*
X52186056Y-59882499D01*
X52209716Y-59997115D01*
X52234953Y-60096329D01*
X52260098Y-60171780D01*
X52284943Y-60231439D01*
X52325471Y-60323131D01*
X52369469Y-60417483D01*
X52414579Y-60509911D01*
X52458447Y-60595833D01*
X52498715Y-60670668D01*
X52533026Y-60729832D01*
X52559024Y-60768744D01*
X52574352Y-60782821D01*
X52589769Y-60777050D01*
X52624978Y-60756719D01*
X52669678Y-60726751D01*
X52706690Y-60703107D01*
X52754470Y-60679564D01*
X52789245Y-60670450D01*
X52792426Y-60670497D01*
X52840411Y-60676328D01*
X52905649Y-60689789D01*
X52976248Y-60707861D01*
X53040313Y-60727525D01*
X53085952Y-60745764D01*
X53107193Y-60760160D01*
X53148284Y-60802943D01*
X53186544Y-60857842D01*
X53214778Y-60913834D01*
X53225788Y-60959901D01*
X53226587Y-60969634D01*
X53235628Y-61012250D01*
X53252604Y-61071513D01*
X53274838Y-61137721D01*
X53280604Y-61153706D01*
X53308041Y-61229758D01*
X53334648Y-61303508D01*
X53355380Y-61360975D01*
X53367505Y-61391498D01*
X53394026Y-61450767D01*
X53427893Y-61521418D01*
X53465627Y-61596687D01*
X53503751Y-61669812D01*
X53538786Y-61734031D01*
X53567253Y-61782583D01*
X53585676Y-61808705D01*
X53591701Y-61812070D01*
X53597684Y-61802081D01*
X53600696Y-61771188D01*
X53601019Y-61715657D01*
X53598932Y-61631758D01*
X53597562Y-61580834D01*
X53597524Y-61497635D01*
X53601859Y-61430196D01*
X53611496Y-61367668D01*
X53627359Y-61299204D01*
X53638972Y-61257226D01*
X53684223Y-61132593D01*
X53746818Y-61008498D01*
X53830028Y-60879013D01*
X53937127Y-60738214D01*
X53970473Y-60697043D01*
X54022292Y-60633145D01*
X54067604Y-60577352D01*
X54081116Y-60560424D01*
X54133008Y-60490818D01*
X54185984Y-60413829D01*
X54234776Y-60337605D01*
X54274112Y-60270293D01*
X54298725Y-60220038D01*
X54300363Y-60215936D01*
X54320461Y-60168068D01*
X54338145Y-60129460D01*
X54347073Y-60101829D01*
X54339971Y-60053539D01*
X54304657Y-60015337D01*
X54291401Y-60008367D01*
X54261019Y-60004982D01*
X54217929Y-60018810D01*
X54189328Y-60032972D01*
X54147945Y-60064056D01*
X54108652Y-60109462D01*
X54068619Y-60173314D01*
X54025016Y-60259738D01*
X53975013Y-60372856D01*
X53973721Y-60375894D01*
X53947674Y-60433864D01*
X53916845Y-60498182D01*
X53887106Y-60556898D01*
X53864330Y-60598062D01*
X53852987Y-60616919D01*
X53827288Y-60660275D01*
X53797705Y-60710665D01*
X53747435Y-60791076D01*
X53699074Y-60856227D01*
X53658440Y-60897392D01*
X53627922Y-60911742D01*
X53596855Y-60905805D01*
X53543984Y-60888940D01*
X53478700Y-60864590D01*
X53409431Y-60836213D01*
X53344603Y-60807269D01*
X53292644Y-60781218D01*
X53261982Y-60761519D01*
X53251008Y-60750934D01*
X53228063Y-60715907D01*
X53225292Y-60682369D01*
X53353798Y-60682369D01*
X53373266Y-60705889D01*
X53418208Y-60728601D01*
X53489934Y-60756424D01*
X53519499Y-60767308D01*
X53571614Y-60783512D01*
X53604176Y-60787302D01*
X53623780Y-60779832D01*
X53641071Y-60758695D01*
X53670152Y-60715631D01*
X53706708Y-60657642D01*
X53746722Y-60591486D01*
X53786180Y-60523923D01*
X53821068Y-60461710D01*
X53847370Y-60411607D01*
X53861071Y-60380372D01*
X53861200Y-60379958D01*
X53884771Y-60316709D01*
X53918251Y-60242658D01*
X53957280Y-60165945D01*
X53997502Y-60094710D01*
X54034556Y-60037092D01*
X54064085Y-60001232D01*
X54101168Y-59972311D01*
X54166312Y-59935054D01*
X54233590Y-59908463D01*
X54290302Y-59898316D01*
X54298056Y-59899108D01*
X54336243Y-59913203D01*
X54378450Y-59939350D01*
X54404770Y-59961047D01*
X54423108Y-59985822D01*
X54430731Y-60019653D01*
X54432248Y-60074080D01*
X54431910Y-60094137D01*
X54427052Y-60145943D01*
X54414857Y-60198341D01*
X54393329Y-60255520D01*
X54360469Y-60321669D01*
X54314280Y-60400976D01*
X54252765Y-60497630D01*
X54173927Y-60615820D01*
X54171973Y-60618628D01*
X54146604Y-60650798D01*
X54107719Y-60696261D01*
X54062897Y-60746122D01*
X54014185Y-60803375D01*
X53961692Y-60872993D01*
X53920362Y-60935871D01*
X53889885Y-60986258D01*
X53854572Y-61041439D01*
X53826792Y-61081512D01*
X53783974Y-61152274D01*
X53741891Y-61254168D01*
X53709613Y-61369047D01*
X53689891Y-61486872D01*
X53685474Y-61597600D01*
X53692591Y-61692494D01*
X53708509Y-61774830D01*
X53734532Y-61836920D01*
X53772460Y-61884707D01*
X53783150Y-61895461D01*
X53810157Y-61928572D01*
X53820975Y-61952000D01*
X53821310Y-61956920D01*
X53838187Y-61978412D01*
X53877586Y-61983109D01*
X53935384Y-61971211D01*
X54007455Y-61942919D01*
X54054058Y-61922424D01*
X54117254Y-61902056D01*
X54178310Y-61895151D01*
X54248010Y-61900912D01*
X54337134Y-61918541D01*
X54372514Y-61926946D01*
X54421929Y-61942530D01*
X54455774Y-61963349D01*
X54476984Y-61994789D01*
X54488493Y-62042233D01*
X54493236Y-62111067D01*
X54494147Y-62206675D01*
X54494584Y-62270683D01*
X54497561Y-62346407D01*
X54504545Y-62407581D01*
X54516906Y-62464734D01*
X54536014Y-62528398D01*
X54539779Y-62539784D01*
X54565000Y-62609654D01*
X54591339Y-62674008D01*
X54613669Y-62720181D01*
X54627610Y-62743271D01*
X54658590Y-62781077D01*
X54682738Y-62789187D01*
X54698970Y-62767006D01*
X54703765Y-62752246D01*
X54724313Y-62700117D01*
X54744121Y-62672944D01*
X54766922Y-62665130D01*
X54782059Y-62658234D01*
X54815996Y-62632659D01*
X54860913Y-62593592D01*
X54910905Y-62546768D01*
X54960067Y-62497920D01*
X55002494Y-62452781D01*
X55032280Y-62417086D01*
X55043521Y-62396567D01*
X55044465Y-62392520D01*
X55059835Y-62367757D01*
X55088060Y-62334397D01*
X55191173Y-62224106D01*
X55295130Y-62109475D01*
X55379685Y-62009901D01*
X55446749Y-61921282D01*
X55498233Y-61839514D01*
X55536047Y-61760495D01*
X55562103Y-61680121D01*
X55578310Y-61594289D01*
X55586579Y-61498896D01*
X55588821Y-61389838D01*
X55586946Y-61263014D01*
X55584232Y-61167710D01*
X55580435Y-61087937D01*
X55574880Y-61026472D01*
X55566653Y-60976080D01*
X55554841Y-60929525D01*
X55538529Y-60879570D01*
X55511869Y-60803956D01*
X55457389Y-60655487D01*
X55407025Y-60527610D01*
X55357971Y-60413072D01*
X55355523Y-60407587D01*
X55324880Y-60337390D01*
X55295559Y-60267828D01*
X55273599Y-60213208D01*
X55259933Y-60183214D01*
X55230005Y-60136349D01*
X55196749Y-60099731D01*
X55166183Y-60079480D01*
X55144323Y-60081716D01*
X55144014Y-60082162D01*
X55140760Y-60103645D01*
X55137741Y-60152659D01*
X55135085Y-60224958D01*
X55132919Y-60316295D01*
X55131372Y-60422423D01*
X55130570Y-60539093D01*
X55130524Y-60552409D01*
X55129166Y-60713454D01*
X55126152Y-60846236D01*
X55121075Y-60954373D01*
X55113529Y-61041478D01*
X55103109Y-61111169D01*
X55089409Y-61167060D01*
X55072022Y-61212768D01*
X55050543Y-61251908D01*
X55033131Y-61275045D01*
X54970284Y-61324232D01*
X54888512Y-61353133D01*
X54794052Y-61359139D01*
X54775330Y-61357757D01*
X54733141Y-61350306D01*
X54706547Y-61332842D01*
X54682984Y-61298504D01*
X54668476Y-61267504D01*
X54648372Y-61183477D01*
X54641265Y-61074650D01*
X54647089Y-60944111D01*
X54665778Y-60794944D01*
X54697267Y-60630235D01*
X54709662Y-60571377D01*
X54725861Y-60487984D01*
X54738711Y-60414909D01*
X54764977Y-60295803D01*
X54827106Y-60119937D01*
X54917371Y-59938531D01*
X54957949Y-59866635D01*
X55013271Y-59766558D01*
X55055125Y-59687520D01*
X55085600Y-59625529D01*
X55106785Y-59576593D01*
X55117058Y-59551221D01*
X55141012Y-59494324D01*
X55166678Y-59435363D01*
X55182602Y-59398332D01*
X55198306Y-59358473D01*
X55204382Y-59338084D01*
X55211750Y-59320490D01*
X55233363Y-59281374D01*
X55265518Y-59227089D01*
X55304481Y-59163629D01*
X55346518Y-59096986D01*
X55387895Y-59033155D01*
X55424877Y-58978126D01*
X55453731Y-58937895D01*
X55473258Y-58909997D01*
X55502580Y-58858221D01*
X55518838Y-58815626D01*
X55518999Y-58814880D01*
X55530332Y-58774290D01*
X55542166Y-58748157D01*
X55542496Y-58747708D01*
X55553249Y-58721361D01*
X55566791Y-58673230D01*
X55581005Y-58612944D01*
X55593775Y-58550130D01*
X55602984Y-58494417D01*
X55606516Y-58455431D01*
X55606496Y-58410349D01*
X55566617Y-58458607D01*
X55549873Y-58478895D01*
X55525345Y-58509024D01*
X55504292Y-58536024D01*
X55479236Y-58569603D01*
X55442700Y-58619468D01*
X55395136Y-58680670D01*
X55340892Y-58738021D01*
X55280023Y-58786702D01*
X55204556Y-58832966D01*
X55106515Y-58883066D01*
X55040861Y-58914501D01*
X54985118Y-58939133D01*
X54940573Y-58954154D01*
X54897785Y-58961942D01*
X54847312Y-58964872D01*
X54779713Y-58965320D01*
X54759500Y-58965207D01*
X54662264Y-58959861D01*
X54592405Y-58945261D01*
X54546544Y-58919672D01*
X54521299Y-58881359D01*
X54513290Y-58828588D01*
X54523778Y-58766105D01*
X54559327Y-58703006D01*
X54622840Y-58635846D01*
X54660082Y-58600094D01*
X54687229Y-58564734D01*
X54697864Y-58529775D01*
X54691025Y-58490321D01*
X54665750Y-58441471D01*
X54621074Y-58378328D01*
X54556036Y-58295995D01*
X54505358Y-58233562D01*
X54445087Y-58162470D01*
X54393315Y-58109102D01*
X54343418Y-58069228D01*
X54288771Y-58038615D01*
X54222752Y-58013032D01*
X54138734Y-57988248D01*
X54030095Y-57960032D01*
X53978861Y-57944873D01*
X53911309Y-57919723D01*
X53858326Y-57894400D01*
X53838205Y-57883670D01*
X53788249Y-57863415D01*
X53748687Y-57855377D01*
X53715734Y-57851687D01*
X53673765Y-57837988D01*
X53669623Y-57835814D01*
X53642801Y-57826194D01*
X53636056Y-57836239D01*
X53649583Y-57867615D01*
X53683575Y-57921986D01*
X53713188Y-57965828D01*
X53768091Y-58042240D01*
X53818648Y-58103588D01*
X53872505Y-58158754D01*
X53937310Y-58216616D01*
X53961468Y-58237924D01*
X54022339Y-58301071D01*
X54067880Y-58367663D01*
X54099190Y-58442286D01*
X54117367Y-58529526D01*
X54123510Y-58633969D01*
X54118718Y-58760203D01*
X54104090Y-58912814D01*
X54095848Y-58979718D01*
X54079385Y-59084781D01*
X54061024Y-59165095D01*
X54039763Y-59225524D01*
X54016842Y-59274704D01*
X53988929Y-59319691D01*
X53959048Y-59341852D01*
X53920117Y-59345645D01*
X53865055Y-59335529D01*
X53839227Y-59330019D01*
X53766694Y-59318785D01*
X53700329Y-59313321D01*
X53659019Y-59312812D01*
X53631205Y-59317382D01*
X53619429Y-59332498D01*
X53614867Y-59363325D01*
X53614570Y-59368451D01*
X53616299Y-59409272D01*
X53622521Y-59472508D01*
X53632389Y-59550524D01*
X53645057Y-59635685D01*
X53659805Y-59742808D01*
X53671503Y-59889256D01*
X53671503Y-60019302D01*
X53659873Y-60128398D01*
X53636679Y-60211995D01*
X53610347Y-60273581D01*
X53575820Y-60346509D01*
X53540649Y-60407710D01*
X53498201Y-60468337D01*
X53441841Y-60539542D01*
X53435109Y-60547782D01*
X53386032Y-60609233D01*
X53358491Y-60652123D01*
X53353798Y-60682369D01*
X53225292Y-60682369D01*
X53224780Y-60676174D01*
X53242384Y-60627715D01*
X53282098Y-60566512D01*
X53345148Y-60488546D01*
X53358028Y-60473365D01*
X53450738Y-60351377D01*
X53517300Y-60234392D01*
X53559389Y-60116046D01*
X53578681Y-59989974D01*
X53576851Y-59849812D01*
X53555575Y-59689196D01*
X53539860Y-59590885D01*
X53526450Y-59480269D01*
X53519986Y-59386321D01*
X53520774Y-59313883D01*
X53529117Y-59267800D01*
X53533620Y-59257638D01*
X53559856Y-59228642D01*
X53607107Y-59212959D01*
X53631299Y-59210393D01*
X53693242Y-59211489D01*
X53765603Y-59218924D01*
X53834999Y-59231105D01*
X53888047Y-59246437D01*
X53903876Y-59247934D01*
X53923234Y-59230901D01*
X53945650Y-59187729D01*
X53955500Y-59165050D01*
X53970614Y-59126661D01*
X53982351Y-59088411D01*
X53991990Y-59043866D01*
X54000811Y-58986593D01*
X54010091Y-58910157D01*
X54021110Y-58808125D01*
X54028757Y-58733248D01*
X54034906Y-58661668D01*
X54037051Y-58609786D01*
X54035144Y-58570763D01*
X54029138Y-58537760D01*
X54018985Y-58503940D01*
X54004864Y-58464180D01*
X53983277Y-58416973D01*
X53955371Y-58376648D01*
X53914686Y-58334458D01*
X53854762Y-58281660D01*
X53814567Y-58245682D01*
X53697032Y-58119286D01*
X53597684Y-57979859D01*
X53584612Y-57959500D01*
X53545927Y-57904900D01*
X53505037Y-57852674D01*
X53480248Y-57820574D01*
X53457851Y-57777165D01*
X53454184Y-57736235D01*
X53459393Y-57707168D01*
X53476240Y-57688558D01*
X53514509Y-57681194D01*
X53572466Y-57686379D01*
X53636878Y-57709325D01*
X53659176Y-57719393D01*
X53723779Y-57742304D01*
X53788595Y-57758821D01*
X53817727Y-57765393D01*
X53877512Y-57784162D01*
X53923604Y-57805118D01*
X53927969Y-57807703D01*
X53960405Y-57824413D01*
X54002303Y-57841402D01*
X54059108Y-57860524D01*
X54136264Y-57883631D01*
X54239215Y-57912577D01*
X54272764Y-57922152D01*
X54357069Y-57951042D01*
X54420772Y-57983351D01*
X54472461Y-58024140D01*
X54520722Y-58078471D01*
X54550680Y-58115868D01*
X54598337Y-58173463D01*
X54639268Y-58220948D01*
X54654140Y-58237847D01*
X54726196Y-58330131D01*
X54772205Y-58411479D01*
X54794219Y-58485392D01*
X54796885Y-58543414D01*
X54781793Y-58602247D01*
X54744312Y-58660810D01*
X54681121Y-58726171D01*
X54648661Y-58757545D01*
X54620166Y-58788672D01*
X54609196Y-58805881D01*
X54619225Y-58824576D01*
X54644401Y-58852091D01*
X54672881Y-58871392D01*
X54714033Y-58881940D01*
X54776666Y-58884889D01*
X54785375Y-58884848D01*
X54829047Y-58882538D01*
X54870143Y-58874887D01*
X54916383Y-58859404D01*
X54975483Y-58833598D01*
X55055162Y-58794976D01*
X55061123Y-58792022D01*
X55135278Y-58754689D01*
X55189104Y-58724625D01*
X55230606Y-58695358D01*
X55267791Y-58660420D01*
X55308669Y-58613339D01*
X55361244Y-58547645D01*
X55424024Y-58468261D01*
X55492792Y-58380873D01*
X55545403Y-58313248D01*
X55584132Y-58262316D01*
X55611254Y-58225011D01*
X55629047Y-58198267D01*
X55639785Y-58179014D01*
X55645744Y-58164187D01*
X55659332Y-58141379D01*
X55696093Y-58128841D01*
X55717968Y-58131197D01*
X55732025Y-58146416D01*
X55735225Y-58184093D01*
X55734527Y-58201624D01*
X55729725Y-58254123D01*
X55721365Y-58322746D01*
X55710631Y-58397234D01*
X55703272Y-58443663D01*
X55701222Y-58455431D01*
X55676181Y-58599210D01*
G37*
D11*
%TO.C,A1*%
X72260000Y-64640000D02*
X77340000Y-64640000D01*
X72260000Y-102870000D02*
X72260000Y-64640000D01*
X72260000Y-108080000D02*
X72260000Y-105410000D01*
X74930000Y-67310000D02*
X72260000Y-67310000D01*
X74930000Y-102870000D02*
X72260000Y-102870000D01*
X74930000Y-102870000D02*
X74930000Y-67310000D01*
X74930000Y-102870000D02*
X74930000Y-105410000D01*
X74930000Y-105410000D02*
X72260000Y-105410000D01*
X77340000Y-62100000D02*
X77340000Y-72520000D01*
X77340000Y-72520000D02*
X85220000Y-72520000D01*
X85220000Y-62100000D02*
X77340000Y-62100000D01*
X85220000Y-72520000D02*
X85220000Y-62100000D01*
X87630000Y-67310000D02*
X90300000Y-67310000D01*
X87630000Y-105410000D02*
X87630000Y-67310000D01*
X87630000Y-105410000D02*
X90300000Y-105410000D01*
X90300000Y-64640000D02*
X85220000Y-64640000D01*
X90300000Y-64640000D02*
X90300000Y-108080000D01*
X90300000Y-108080000D02*
X72260000Y-108080000D01*
%TD*%
M02*
