%TF.GenerationSoftware,KiCad,Pcbnew,7.0.9*%
%TF.CreationDate,2023-12-01T18:07:20+01:00*%
%TF.ProjectId,MusicControllerPCB,4d757369-6343-46f6-9e74-726f6c6c6572,rev?*%
%TF.SameCoordinates,Original*%
%TF.FileFunction,Legend,Top*%
%TF.FilePolarity,Positive*%
%FSLAX46Y46*%
G04 Gerber Fmt 4.6, Leading zero omitted, Abs format (unit mm)*
G04 Created by KiCad (PCBNEW 7.0.9) date 2023-12-01 18:07:20*
%MOMM*%
%LPD*%
G01*
G04 APERTURE LIST*
%ADD10C,0.150000*%
%ADD11C,0.100000*%
%ADD12C,0.120000*%
G04 APERTURE END LIST*
D10*
X76536779Y-58289819D02*
X76536779Y-57289819D01*
X76536779Y-57289819D02*
X76870112Y-58004104D01*
X76870112Y-58004104D02*
X77203445Y-57289819D01*
X77203445Y-57289819D02*
X77203445Y-58289819D01*
X78108207Y-57623152D02*
X78108207Y-58289819D01*
X77679636Y-57623152D02*
X77679636Y-58146961D01*
X77679636Y-58146961D02*
X77727255Y-58242200D01*
X77727255Y-58242200D02*
X77822493Y-58289819D01*
X77822493Y-58289819D02*
X77965350Y-58289819D01*
X77965350Y-58289819D02*
X78060588Y-58242200D01*
X78060588Y-58242200D02*
X78108207Y-58194580D01*
X78536779Y-58242200D02*
X78632017Y-58289819D01*
X78632017Y-58289819D02*
X78822493Y-58289819D01*
X78822493Y-58289819D02*
X78917731Y-58242200D01*
X78917731Y-58242200D02*
X78965350Y-58146961D01*
X78965350Y-58146961D02*
X78965350Y-58099342D01*
X78965350Y-58099342D02*
X78917731Y-58004104D01*
X78917731Y-58004104D02*
X78822493Y-57956485D01*
X78822493Y-57956485D02*
X78679636Y-57956485D01*
X78679636Y-57956485D02*
X78584398Y-57908866D01*
X78584398Y-57908866D02*
X78536779Y-57813628D01*
X78536779Y-57813628D02*
X78536779Y-57766009D01*
X78536779Y-57766009D02*
X78584398Y-57670771D01*
X78584398Y-57670771D02*
X78679636Y-57623152D01*
X78679636Y-57623152D02*
X78822493Y-57623152D01*
X78822493Y-57623152D02*
X78917731Y-57670771D01*
X79393922Y-58289819D02*
X79393922Y-57623152D01*
X79393922Y-57289819D02*
X79346303Y-57337438D01*
X79346303Y-57337438D02*
X79393922Y-57385057D01*
X79393922Y-57385057D02*
X79441541Y-57337438D01*
X79441541Y-57337438D02*
X79393922Y-57289819D01*
X79393922Y-57289819D02*
X79393922Y-57385057D01*
X80298683Y-58242200D02*
X80203445Y-58289819D01*
X80203445Y-58289819D02*
X80012969Y-58289819D01*
X80012969Y-58289819D02*
X79917731Y-58242200D01*
X79917731Y-58242200D02*
X79870112Y-58194580D01*
X79870112Y-58194580D02*
X79822493Y-58099342D01*
X79822493Y-58099342D02*
X79822493Y-57813628D01*
X79822493Y-57813628D02*
X79870112Y-57718390D01*
X79870112Y-57718390D02*
X79917731Y-57670771D01*
X79917731Y-57670771D02*
X80012969Y-57623152D01*
X80012969Y-57623152D02*
X80203445Y-57623152D01*
X80203445Y-57623152D02*
X80298683Y-57670771D01*
X82060588Y-58194580D02*
X82012969Y-58242200D01*
X82012969Y-58242200D02*
X81870112Y-58289819D01*
X81870112Y-58289819D02*
X81774874Y-58289819D01*
X81774874Y-58289819D02*
X81632017Y-58242200D01*
X81632017Y-58242200D02*
X81536779Y-58146961D01*
X81536779Y-58146961D02*
X81489160Y-58051723D01*
X81489160Y-58051723D02*
X81441541Y-57861247D01*
X81441541Y-57861247D02*
X81441541Y-57718390D01*
X81441541Y-57718390D02*
X81489160Y-57527914D01*
X81489160Y-57527914D02*
X81536779Y-57432676D01*
X81536779Y-57432676D02*
X81632017Y-57337438D01*
X81632017Y-57337438D02*
X81774874Y-57289819D01*
X81774874Y-57289819D02*
X81870112Y-57289819D01*
X81870112Y-57289819D02*
X82012969Y-57337438D01*
X82012969Y-57337438D02*
X82060588Y-57385057D01*
X82632017Y-58289819D02*
X82536779Y-58242200D01*
X82536779Y-58242200D02*
X82489160Y-58194580D01*
X82489160Y-58194580D02*
X82441541Y-58099342D01*
X82441541Y-58099342D02*
X82441541Y-57813628D01*
X82441541Y-57813628D02*
X82489160Y-57718390D01*
X82489160Y-57718390D02*
X82536779Y-57670771D01*
X82536779Y-57670771D02*
X82632017Y-57623152D01*
X82632017Y-57623152D02*
X82774874Y-57623152D01*
X82774874Y-57623152D02*
X82870112Y-57670771D01*
X82870112Y-57670771D02*
X82917731Y-57718390D01*
X82917731Y-57718390D02*
X82965350Y-57813628D01*
X82965350Y-57813628D02*
X82965350Y-58099342D01*
X82965350Y-58099342D02*
X82917731Y-58194580D01*
X82917731Y-58194580D02*
X82870112Y-58242200D01*
X82870112Y-58242200D02*
X82774874Y-58289819D01*
X82774874Y-58289819D02*
X82632017Y-58289819D01*
X83393922Y-57623152D02*
X83393922Y-58289819D01*
X83393922Y-57718390D02*
X83441541Y-57670771D01*
X83441541Y-57670771D02*
X83536779Y-57623152D01*
X83536779Y-57623152D02*
X83679636Y-57623152D01*
X83679636Y-57623152D02*
X83774874Y-57670771D01*
X83774874Y-57670771D02*
X83822493Y-57766009D01*
X83822493Y-57766009D02*
X83822493Y-58289819D01*
X84155827Y-57623152D02*
X84536779Y-57623152D01*
X84298684Y-57289819D02*
X84298684Y-58146961D01*
X84298684Y-58146961D02*
X84346303Y-58242200D01*
X84346303Y-58242200D02*
X84441541Y-58289819D01*
X84441541Y-58289819D02*
X84536779Y-58289819D01*
X84870113Y-58289819D02*
X84870113Y-57623152D01*
X84870113Y-57813628D02*
X84917732Y-57718390D01*
X84917732Y-57718390D02*
X84965351Y-57670771D01*
X84965351Y-57670771D02*
X85060589Y-57623152D01*
X85060589Y-57623152D02*
X85155827Y-57623152D01*
X85632018Y-58289819D02*
X85536780Y-58242200D01*
X85536780Y-58242200D02*
X85489161Y-58194580D01*
X85489161Y-58194580D02*
X85441542Y-58099342D01*
X85441542Y-58099342D02*
X85441542Y-57813628D01*
X85441542Y-57813628D02*
X85489161Y-57718390D01*
X85489161Y-57718390D02*
X85536780Y-57670771D01*
X85536780Y-57670771D02*
X85632018Y-57623152D01*
X85632018Y-57623152D02*
X85774875Y-57623152D01*
X85774875Y-57623152D02*
X85870113Y-57670771D01*
X85870113Y-57670771D02*
X85917732Y-57718390D01*
X85917732Y-57718390D02*
X85965351Y-57813628D01*
X85965351Y-57813628D02*
X85965351Y-58099342D01*
X85965351Y-58099342D02*
X85917732Y-58194580D01*
X85917732Y-58194580D02*
X85870113Y-58242200D01*
X85870113Y-58242200D02*
X85774875Y-58289819D01*
X85774875Y-58289819D02*
X85632018Y-58289819D01*
X86536780Y-58289819D02*
X86441542Y-58242200D01*
X86441542Y-58242200D02*
X86393923Y-58146961D01*
X86393923Y-58146961D02*
X86393923Y-57289819D01*
X87060590Y-58289819D02*
X86965352Y-58242200D01*
X86965352Y-58242200D02*
X86917733Y-58146961D01*
X86917733Y-58146961D02*
X86917733Y-57289819D01*
X87822495Y-58242200D02*
X87727257Y-58289819D01*
X87727257Y-58289819D02*
X87536781Y-58289819D01*
X87536781Y-58289819D02*
X87441543Y-58242200D01*
X87441543Y-58242200D02*
X87393924Y-58146961D01*
X87393924Y-58146961D02*
X87393924Y-57766009D01*
X87393924Y-57766009D02*
X87441543Y-57670771D01*
X87441543Y-57670771D02*
X87536781Y-57623152D01*
X87536781Y-57623152D02*
X87727257Y-57623152D01*
X87727257Y-57623152D02*
X87822495Y-57670771D01*
X87822495Y-57670771D02*
X87870114Y-57766009D01*
X87870114Y-57766009D02*
X87870114Y-57861247D01*
X87870114Y-57861247D02*
X87393924Y-57956485D01*
X88298686Y-58289819D02*
X88298686Y-57623152D01*
X88298686Y-57813628D02*
X88346305Y-57718390D01*
X88346305Y-57718390D02*
X88393924Y-57670771D01*
X88393924Y-57670771D02*
X88489162Y-57623152D01*
X88489162Y-57623152D02*
X88584400Y-57623152D01*
X64873333Y-73845009D02*
X65016190Y-73892628D01*
X65016190Y-73892628D02*
X65063809Y-73940247D01*
X65063809Y-73940247D02*
X65111428Y-74035485D01*
X65111428Y-74035485D02*
X65111428Y-74178342D01*
X65111428Y-74178342D02*
X65063809Y-74273580D01*
X65063809Y-74273580D02*
X65016190Y-74321200D01*
X65016190Y-74321200D02*
X64920952Y-74368819D01*
X64920952Y-74368819D02*
X64540000Y-74368819D01*
X64540000Y-74368819D02*
X64540000Y-73368819D01*
X64540000Y-73368819D02*
X64873333Y-73368819D01*
X64873333Y-73368819D02*
X64968571Y-73416438D01*
X64968571Y-73416438D02*
X65016190Y-73464057D01*
X65016190Y-73464057D02*
X65063809Y-73559295D01*
X65063809Y-73559295D02*
X65063809Y-73654533D01*
X65063809Y-73654533D02*
X65016190Y-73749771D01*
X65016190Y-73749771D02*
X64968571Y-73797390D01*
X64968571Y-73797390D02*
X64873333Y-73845009D01*
X64873333Y-73845009D02*
X64540000Y-73845009D01*
X65540000Y-74368819D02*
X65540000Y-73702152D01*
X65540000Y-73892628D02*
X65587619Y-73797390D01*
X65587619Y-73797390D02*
X65635238Y-73749771D01*
X65635238Y-73749771D02*
X65730476Y-73702152D01*
X65730476Y-73702152D02*
X65825714Y-73702152D01*
X66587619Y-74368819D02*
X66587619Y-73368819D01*
X66587619Y-74321200D02*
X66492381Y-74368819D01*
X66492381Y-74368819D02*
X66301905Y-74368819D01*
X66301905Y-74368819D02*
X66206667Y-74321200D01*
X66206667Y-74321200D02*
X66159048Y-74273580D01*
X66159048Y-74273580D02*
X66111429Y-74178342D01*
X66111429Y-74178342D02*
X66111429Y-73892628D01*
X66111429Y-73892628D02*
X66159048Y-73797390D01*
X66159048Y-73797390D02*
X66206667Y-73749771D01*
X66206667Y-73749771D02*
X66301905Y-73702152D01*
X66301905Y-73702152D02*
X66492381Y-73702152D01*
X66492381Y-73702152D02*
X66587619Y-73749771D01*
X67587619Y-74368819D02*
X67016191Y-74368819D01*
X67301905Y-74368819D02*
X67301905Y-73368819D01*
X67301905Y-73368819D02*
X67206667Y-73511676D01*
X67206667Y-73511676D02*
X67111429Y-73606914D01*
X67111429Y-73606914D02*
X67016191Y-73654533D01*
X97726667Y-97387200D02*
X97869524Y-97434819D01*
X97869524Y-97434819D02*
X98107619Y-97434819D01*
X98107619Y-97434819D02*
X98202857Y-97387200D01*
X98202857Y-97387200D02*
X98250476Y-97339580D01*
X98250476Y-97339580D02*
X98298095Y-97244342D01*
X98298095Y-97244342D02*
X98298095Y-97149104D01*
X98298095Y-97149104D02*
X98250476Y-97053866D01*
X98250476Y-97053866D02*
X98202857Y-97006247D01*
X98202857Y-97006247D02*
X98107619Y-96958628D01*
X98107619Y-96958628D02*
X97917143Y-96911009D01*
X97917143Y-96911009D02*
X97821905Y-96863390D01*
X97821905Y-96863390D02*
X97774286Y-96815771D01*
X97774286Y-96815771D02*
X97726667Y-96720533D01*
X97726667Y-96720533D02*
X97726667Y-96625295D01*
X97726667Y-96625295D02*
X97774286Y-96530057D01*
X97774286Y-96530057D02*
X97821905Y-96482438D01*
X97821905Y-96482438D02*
X97917143Y-96434819D01*
X97917143Y-96434819D02*
X98155238Y-96434819D01*
X98155238Y-96434819D02*
X98298095Y-96482438D01*
X98631429Y-96434819D02*
X98869524Y-97434819D01*
X98869524Y-97434819D02*
X99060000Y-96720533D01*
X99060000Y-96720533D02*
X99250476Y-97434819D01*
X99250476Y-97434819D02*
X99488572Y-96434819D01*
X99774286Y-96434819D02*
X100393333Y-96434819D01*
X100393333Y-96434819D02*
X100060000Y-96815771D01*
X100060000Y-96815771D02*
X100202857Y-96815771D01*
X100202857Y-96815771D02*
X100298095Y-96863390D01*
X100298095Y-96863390D02*
X100345714Y-96911009D01*
X100345714Y-96911009D02*
X100393333Y-97006247D01*
X100393333Y-97006247D02*
X100393333Y-97244342D01*
X100393333Y-97244342D02*
X100345714Y-97339580D01*
X100345714Y-97339580D02*
X100298095Y-97387200D01*
X100298095Y-97387200D02*
X100202857Y-97434819D01*
X100202857Y-97434819D02*
X99917143Y-97434819D01*
X99917143Y-97434819D02*
X99821905Y-97387200D01*
X99821905Y-97387200D02*
X99774286Y-97339580D01*
X62166667Y-97387200D02*
X62309524Y-97434819D01*
X62309524Y-97434819D02*
X62547619Y-97434819D01*
X62547619Y-97434819D02*
X62642857Y-97387200D01*
X62642857Y-97387200D02*
X62690476Y-97339580D01*
X62690476Y-97339580D02*
X62738095Y-97244342D01*
X62738095Y-97244342D02*
X62738095Y-97149104D01*
X62738095Y-97149104D02*
X62690476Y-97053866D01*
X62690476Y-97053866D02*
X62642857Y-97006247D01*
X62642857Y-97006247D02*
X62547619Y-96958628D01*
X62547619Y-96958628D02*
X62357143Y-96911009D01*
X62357143Y-96911009D02*
X62261905Y-96863390D01*
X62261905Y-96863390D02*
X62214286Y-96815771D01*
X62214286Y-96815771D02*
X62166667Y-96720533D01*
X62166667Y-96720533D02*
X62166667Y-96625295D01*
X62166667Y-96625295D02*
X62214286Y-96530057D01*
X62214286Y-96530057D02*
X62261905Y-96482438D01*
X62261905Y-96482438D02*
X62357143Y-96434819D01*
X62357143Y-96434819D02*
X62595238Y-96434819D01*
X62595238Y-96434819D02*
X62738095Y-96482438D01*
X63071429Y-96434819D02*
X63309524Y-97434819D01*
X63309524Y-97434819D02*
X63500000Y-96720533D01*
X63500000Y-96720533D02*
X63690476Y-97434819D01*
X63690476Y-97434819D02*
X63928572Y-96434819D01*
X64833333Y-97434819D02*
X64261905Y-97434819D01*
X64547619Y-97434819D02*
X64547619Y-96434819D01*
X64547619Y-96434819D02*
X64452381Y-96577676D01*
X64452381Y-96577676D02*
X64357143Y-96672914D01*
X64357143Y-96672914D02*
X64261905Y-96720533D01*
X79946667Y-97387200D02*
X80089524Y-97434819D01*
X80089524Y-97434819D02*
X80327619Y-97434819D01*
X80327619Y-97434819D02*
X80422857Y-97387200D01*
X80422857Y-97387200D02*
X80470476Y-97339580D01*
X80470476Y-97339580D02*
X80518095Y-97244342D01*
X80518095Y-97244342D02*
X80518095Y-97149104D01*
X80518095Y-97149104D02*
X80470476Y-97053866D01*
X80470476Y-97053866D02*
X80422857Y-97006247D01*
X80422857Y-97006247D02*
X80327619Y-96958628D01*
X80327619Y-96958628D02*
X80137143Y-96911009D01*
X80137143Y-96911009D02*
X80041905Y-96863390D01*
X80041905Y-96863390D02*
X79994286Y-96815771D01*
X79994286Y-96815771D02*
X79946667Y-96720533D01*
X79946667Y-96720533D02*
X79946667Y-96625295D01*
X79946667Y-96625295D02*
X79994286Y-96530057D01*
X79994286Y-96530057D02*
X80041905Y-96482438D01*
X80041905Y-96482438D02*
X80137143Y-96434819D01*
X80137143Y-96434819D02*
X80375238Y-96434819D01*
X80375238Y-96434819D02*
X80518095Y-96482438D01*
X80851429Y-96434819D02*
X81089524Y-97434819D01*
X81089524Y-97434819D02*
X81280000Y-96720533D01*
X81280000Y-96720533D02*
X81470476Y-97434819D01*
X81470476Y-97434819D02*
X81708572Y-96434819D01*
X82041905Y-96530057D02*
X82089524Y-96482438D01*
X82089524Y-96482438D02*
X82184762Y-96434819D01*
X82184762Y-96434819D02*
X82422857Y-96434819D01*
X82422857Y-96434819D02*
X82518095Y-96482438D01*
X82518095Y-96482438D02*
X82565714Y-96530057D01*
X82565714Y-96530057D02*
X82613333Y-96625295D01*
X82613333Y-96625295D02*
X82613333Y-96720533D01*
X82613333Y-96720533D02*
X82565714Y-96863390D01*
X82565714Y-96863390D02*
X81994286Y-97434819D01*
X81994286Y-97434819D02*
X82613333Y-97434819D01*
X97726667Y-82147200D02*
X97869524Y-82194819D01*
X97869524Y-82194819D02*
X98107619Y-82194819D01*
X98107619Y-82194819D02*
X98202857Y-82147200D01*
X98202857Y-82147200D02*
X98250476Y-82099580D01*
X98250476Y-82099580D02*
X98298095Y-82004342D01*
X98298095Y-82004342D02*
X98298095Y-81909104D01*
X98298095Y-81909104D02*
X98250476Y-81813866D01*
X98250476Y-81813866D02*
X98202857Y-81766247D01*
X98202857Y-81766247D02*
X98107619Y-81718628D01*
X98107619Y-81718628D02*
X97917143Y-81671009D01*
X97917143Y-81671009D02*
X97821905Y-81623390D01*
X97821905Y-81623390D02*
X97774286Y-81575771D01*
X97774286Y-81575771D02*
X97726667Y-81480533D01*
X97726667Y-81480533D02*
X97726667Y-81385295D01*
X97726667Y-81385295D02*
X97774286Y-81290057D01*
X97774286Y-81290057D02*
X97821905Y-81242438D01*
X97821905Y-81242438D02*
X97917143Y-81194819D01*
X97917143Y-81194819D02*
X98155238Y-81194819D01*
X98155238Y-81194819D02*
X98298095Y-81242438D01*
X98631429Y-81194819D02*
X98869524Y-82194819D01*
X98869524Y-82194819D02*
X99060000Y-81480533D01*
X99060000Y-81480533D02*
X99250476Y-82194819D01*
X99250476Y-82194819D02*
X99488572Y-81194819D01*
X100298095Y-81528152D02*
X100298095Y-82194819D01*
X100060000Y-81147200D02*
X99821905Y-81861485D01*
X99821905Y-81861485D02*
X100440952Y-81861485D01*
D11*
X83876189Y-67657419D02*
X83542856Y-67181228D01*
X83304761Y-67657419D02*
X83304761Y-66657419D01*
X83304761Y-66657419D02*
X83685713Y-66657419D01*
X83685713Y-66657419D02*
X83780951Y-66705038D01*
X83780951Y-66705038D02*
X83828570Y-66752657D01*
X83828570Y-66752657D02*
X83876189Y-66847895D01*
X83876189Y-66847895D02*
X83876189Y-66990752D01*
X83876189Y-66990752D02*
X83828570Y-67085990D01*
X83828570Y-67085990D02*
X83780951Y-67133609D01*
X83780951Y-67133609D02*
X83685713Y-67181228D01*
X83685713Y-67181228D02*
X83304761Y-67181228D01*
X84447618Y-67657419D02*
X84352380Y-67609800D01*
X84352380Y-67609800D02*
X84304761Y-67562180D01*
X84304761Y-67562180D02*
X84257142Y-67466942D01*
X84257142Y-67466942D02*
X84257142Y-67181228D01*
X84257142Y-67181228D02*
X84304761Y-67085990D01*
X84304761Y-67085990D02*
X84352380Y-67038371D01*
X84352380Y-67038371D02*
X84447618Y-66990752D01*
X84447618Y-66990752D02*
X84590475Y-66990752D01*
X84590475Y-66990752D02*
X84685713Y-67038371D01*
X84685713Y-67038371D02*
X84733332Y-67085990D01*
X84733332Y-67085990D02*
X84780951Y-67181228D01*
X84780951Y-67181228D02*
X84780951Y-67466942D01*
X84780951Y-67466942D02*
X84733332Y-67562180D01*
X84733332Y-67562180D02*
X84685713Y-67609800D01*
X84685713Y-67609800D02*
X84590475Y-67657419D01*
X84590475Y-67657419D02*
X84447618Y-67657419D01*
X85066666Y-66990752D02*
X85447618Y-66990752D01*
X85209523Y-66657419D02*
X85209523Y-67514561D01*
X85209523Y-67514561D02*
X85257142Y-67609800D01*
X85257142Y-67609800D02*
X85352380Y-67657419D01*
X85352380Y-67657419D02*
X85447618Y-67657419D01*
X86209523Y-67657419D02*
X86209523Y-67133609D01*
X86209523Y-67133609D02*
X86161904Y-67038371D01*
X86161904Y-67038371D02*
X86066666Y-66990752D01*
X86066666Y-66990752D02*
X85876190Y-66990752D01*
X85876190Y-66990752D02*
X85780952Y-67038371D01*
X86209523Y-67609800D02*
X86114285Y-67657419D01*
X86114285Y-67657419D02*
X85876190Y-67657419D01*
X85876190Y-67657419D02*
X85780952Y-67609800D01*
X85780952Y-67609800D02*
X85733333Y-67514561D01*
X85733333Y-67514561D02*
X85733333Y-67419323D01*
X85733333Y-67419323D02*
X85780952Y-67324085D01*
X85780952Y-67324085D02*
X85876190Y-67276466D01*
X85876190Y-67276466D02*
X86114285Y-67276466D01*
X86114285Y-67276466D02*
X86209523Y-67228847D01*
X86685714Y-67657419D02*
X86685714Y-66990752D01*
X86685714Y-67181228D02*
X86733333Y-67085990D01*
X86733333Y-67085990D02*
X86780952Y-67038371D01*
X86780952Y-67038371D02*
X86876190Y-66990752D01*
X86876190Y-66990752D02*
X86971428Y-66990752D01*
X87209524Y-66990752D02*
X87447619Y-67657419D01*
X87685714Y-66990752D02*
X87447619Y-67657419D01*
X87447619Y-67657419D02*
X87352381Y-67895514D01*
X87352381Y-67895514D02*
X87304762Y-67943133D01*
X87304762Y-67943133D02*
X87209524Y-67990752D01*
X88066667Y-67133609D02*
X88400000Y-67133609D01*
X88542857Y-67657419D02*
X88066667Y-67657419D01*
X88066667Y-67657419D02*
X88066667Y-66657419D01*
X88066667Y-66657419D02*
X88542857Y-66657419D01*
X88971429Y-66990752D02*
X88971429Y-67657419D01*
X88971429Y-67085990D02*
X89019048Y-67038371D01*
X89019048Y-67038371D02*
X89114286Y-66990752D01*
X89114286Y-66990752D02*
X89257143Y-66990752D01*
X89257143Y-66990752D02*
X89352381Y-67038371D01*
X89352381Y-67038371D02*
X89400000Y-67133609D01*
X89400000Y-67133609D02*
X89400000Y-67657419D01*
X90304762Y-67609800D02*
X90209524Y-67657419D01*
X90209524Y-67657419D02*
X90019048Y-67657419D01*
X90019048Y-67657419D02*
X89923810Y-67609800D01*
X89923810Y-67609800D02*
X89876191Y-67562180D01*
X89876191Y-67562180D02*
X89828572Y-67466942D01*
X89828572Y-67466942D02*
X89828572Y-67181228D01*
X89828572Y-67181228D02*
X89876191Y-67085990D01*
X89876191Y-67085990D02*
X89923810Y-67038371D01*
X89923810Y-67038371D02*
X90019048Y-66990752D01*
X90019048Y-66990752D02*
X90209524Y-66990752D01*
X90209524Y-66990752D02*
X90304762Y-67038371D01*
X90876191Y-67657419D02*
X90780953Y-67609800D01*
X90780953Y-67609800D02*
X90733334Y-67562180D01*
X90733334Y-67562180D02*
X90685715Y-67466942D01*
X90685715Y-67466942D02*
X90685715Y-67181228D01*
X90685715Y-67181228D02*
X90733334Y-67085990D01*
X90733334Y-67085990D02*
X90780953Y-67038371D01*
X90780953Y-67038371D02*
X90876191Y-66990752D01*
X90876191Y-66990752D02*
X91019048Y-66990752D01*
X91019048Y-66990752D02*
X91114286Y-67038371D01*
X91114286Y-67038371D02*
X91161905Y-67085990D01*
X91161905Y-67085990D02*
X91209524Y-67181228D01*
X91209524Y-67181228D02*
X91209524Y-67466942D01*
X91209524Y-67466942D02*
X91161905Y-67562180D01*
X91161905Y-67562180D02*
X91114286Y-67609800D01*
X91114286Y-67609800D02*
X91019048Y-67657419D01*
X91019048Y-67657419D02*
X90876191Y-67657419D01*
X92066667Y-67657419D02*
X92066667Y-66657419D01*
X92066667Y-67609800D02*
X91971429Y-67657419D01*
X91971429Y-67657419D02*
X91780953Y-67657419D01*
X91780953Y-67657419D02*
X91685715Y-67609800D01*
X91685715Y-67609800D02*
X91638096Y-67562180D01*
X91638096Y-67562180D02*
X91590477Y-67466942D01*
X91590477Y-67466942D02*
X91590477Y-67181228D01*
X91590477Y-67181228D02*
X91638096Y-67085990D01*
X91638096Y-67085990D02*
X91685715Y-67038371D01*
X91685715Y-67038371D02*
X91780953Y-66990752D01*
X91780953Y-66990752D02*
X91971429Y-66990752D01*
X91971429Y-66990752D02*
X92066667Y-67038371D01*
X92923810Y-67609800D02*
X92828572Y-67657419D01*
X92828572Y-67657419D02*
X92638096Y-67657419D01*
X92638096Y-67657419D02*
X92542858Y-67609800D01*
X92542858Y-67609800D02*
X92495239Y-67514561D01*
X92495239Y-67514561D02*
X92495239Y-67133609D01*
X92495239Y-67133609D02*
X92542858Y-67038371D01*
X92542858Y-67038371D02*
X92638096Y-66990752D01*
X92638096Y-66990752D02*
X92828572Y-66990752D01*
X92828572Y-66990752D02*
X92923810Y-67038371D01*
X92923810Y-67038371D02*
X92971429Y-67133609D01*
X92971429Y-67133609D02*
X92971429Y-67228847D01*
X92971429Y-67228847D02*
X92495239Y-67324085D01*
X93400001Y-67657419D02*
X93400001Y-66990752D01*
X93400001Y-67181228D02*
X93447620Y-67085990D01*
X93447620Y-67085990D02*
X93495239Y-67038371D01*
X93495239Y-67038371D02*
X93590477Y-66990752D01*
X93590477Y-66990752D02*
X93685715Y-66990752D01*
X94542858Y-67657419D02*
X93971430Y-67657419D01*
X94257144Y-67657419D02*
X94257144Y-66657419D01*
X94257144Y-66657419D02*
X94161906Y-66800276D01*
X94161906Y-66800276D02*
X94066668Y-66895514D01*
X94066668Y-66895514D02*
X93971430Y-66943133D01*
D12*
%TO.C,Brd1*%
X52640000Y-61360000D02*
X80040000Y-61360000D01*
X52640000Y-88660000D02*
X52640000Y-61360000D01*
X53062000Y-64655000D02*
X76162000Y-64655000D01*
X53062000Y-81255000D02*
X53062000Y-64655000D01*
X61341000Y-61849000D02*
X61341000Y-64262000D01*
X61341000Y-61849000D02*
X71120000Y-61849000D01*
X71120000Y-61849000D02*
X71120000Y-64262000D01*
X71120000Y-64262000D02*
X61341000Y-64262000D01*
X76162000Y-64655000D02*
X79248000Y-64655000D01*
X76162000Y-81255000D02*
X53062000Y-81255000D01*
X76162000Y-81255000D02*
X79502000Y-81280000D01*
X79502000Y-64643000D02*
X79248000Y-64655000D01*
X79502000Y-81280000D02*
X79502000Y-64643000D01*
X80040000Y-61360000D02*
X80040000Y-88660000D01*
X80040000Y-88660000D02*
X52640000Y-88660000D01*
%TO.C,SW3*%
X95250000Y-97790000D02*
X95250000Y-98090000D01*
X95250000Y-97790000D02*
X102870000Y-97790000D01*
X95250000Y-100030000D02*
X95250000Y-103170000D01*
X95250000Y-105110000D02*
X95250000Y-105410000D01*
X102870000Y-97790000D02*
X102870000Y-98090000D01*
X102870000Y-100030000D02*
X102870000Y-103170000D01*
X102870000Y-105110000D02*
X102870000Y-105410000D01*
X102870000Y-105410000D02*
X95250000Y-105410000D01*
X101600000Y-101600000D02*
G75*
G03*
X101600000Y-101600000I-2540000J0D01*
G01*
%TO.C,SW1*%
X59690000Y-97790000D02*
X59690000Y-98090000D01*
X59690000Y-97790000D02*
X67310000Y-97790000D01*
X59690000Y-100030000D02*
X59690000Y-103170000D01*
X59690000Y-105110000D02*
X59690000Y-105410000D01*
X67310000Y-97790000D02*
X67310000Y-98090000D01*
X67310000Y-100030000D02*
X67310000Y-103170000D01*
X67310000Y-105110000D02*
X67310000Y-105410000D01*
X67310000Y-105410000D02*
X59690000Y-105410000D01*
X66040000Y-101600000D02*
G75*
G03*
X66040000Y-101600000I-2540000J0D01*
G01*
%TO.C,SW2*%
X77470000Y-97790000D02*
X77470000Y-98090000D01*
X77470000Y-97790000D02*
X85090000Y-97790000D01*
X77470000Y-100030000D02*
X77470000Y-103170000D01*
X77470000Y-105110000D02*
X77470000Y-105410000D01*
X85090000Y-97790000D02*
X85090000Y-98090000D01*
X85090000Y-100030000D02*
X85090000Y-103170000D01*
X85090000Y-105110000D02*
X85090000Y-105410000D01*
X85090000Y-105410000D02*
X77470000Y-105410000D01*
X83820000Y-101600000D02*
G75*
G03*
X83820000Y-101600000I-2540000J0D01*
G01*
%TO.C,SW4*%
X95250000Y-82550000D02*
X95250000Y-82850000D01*
X95250000Y-82550000D02*
X102870000Y-82550000D01*
X95250000Y-84790000D02*
X95250000Y-87930000D01*
X95250000Y-89870000D02*
X95250000Y-90170000D01*
X102870000Y-82550000D02*
X102870000Y-82850000D01*
X102870000Y-84790000D02*
X102870000Y-87930000D01*
X102870000Y-89870000D02*
X102870000Y-90170000D01*
X102870000Y-90170000D02*
X95250000Y-90170000D01*
X101600000Y-86360000D02*
G75*
G03*
X101600000Y-86360000I-2540000J0D01*
G01*
D11*
%TO.C,RotaryEncoder1*%
X83820000Y-62120000D02*
X113820000Y-62120000D01*
X113820000Y-62120000D02*
X113820000Y-80120000D01*
X113820000Y-80120000D02*
X83820000Y-80120000D01*
X83820000Y-80120000D02*
X83820000Y-62120000D01*
X91440000Y-64660000D02*
X101600000Y-64660000D01*
X101600000Y-64660000D02*
X101600000Y-74820000D01*
X101600000Y-74820000D02*
X91440000Y-74820000D01*
X91440000Y-74820000D02*
X91440000Y-64660000D01*
X99060000Y-69740000D02*
G75*
G03*
X99060000Y-69740000I-2540000J0D01*
G01*
%TD*%
M02*
