%TF.GenerationSoftware,KiCad,Pcbnew,7.0.9*%
%TF.CreationDate,2023-12-01T18:07:20+01:00*%
%TF.ProjectId,MusicControllerPCB,4d757369-6343-46f6-9e74-726f6c6c6572,rev?*%
%TF.SameCoordinates,Original*%
%TF.FileFunction,Soldermask,Top*%
%TF.FilePolarity,Negative*%
%FSLAX46Y46*%
G04 Gerber Fmt 4.6, Leading zero omitted, Abs format (unit mm)*
G04 Created by KiCad (PCBNEW 7.0.9) date 2023-12-01 18:07:20*
%MOMM*%
%LPD*%
G01*
G04 APERTURE LIST*
%ADD10O,1.600000X2.000000*%
%ADD11C,1.397000*%
%ADD12C,1.524000*%
%ADD13R,1.600000X1.600000*%
%ADD14O,1.600000X1.600000*%
G04 APERTURE END LIST*
D10*
%TO.C,Brd1*%
X62420000Y-63060000D03*
X64960000Y-63060000D03*
X67500000Y-63060000D03*
X70040000Y-63060000D03*
%TD*%
D11*
%TO.C,SW3*%
X95250000Y-99060000D03*
X102870000Y-99060000D03*
X95250000Y-104140000D03*
X102870000Y-104140000D03*
%TD*%
%TO.C,SW1*%
X59690000Y-99060000D03*
X67310000Y-99060000D03*
X59690000Y-104140000D03*
X67310000Y-104140000D03*
%TD*%
%TO.C,SW2*%
X77470000Y-99060000D03*
X85090000Y-99060000D03*
X77470000Y-104140000D03*
X85090000Y-104140000D03*
%TD*%
%TO.C,SW4*%
X95250000Y-83820000D03*
X102870000Y-83820000D03*
X95250000Y-88900000D03*
X102870000Y-88900000D03*
%TD*%
D12*
%TO.C,RotaryEncoder1*%
X111760000Y-64660000D03*
X111760000Y-67200000D03*
X111760000Y-69740000D03*
X111760000Y-72280000D03*
X111760000Y-74820000D03*
%TD*%
D13*
%TO.C,A1*%
X73660000Y-104140000D03*
D14*
X73660000Y-101600000D03*
X73660000Y-99060000D03*
X73660000Y-96520000D03*
X73660000Y-93980000D03*
X73660000Y-91440000D03*
X73660000Y-88900000D03*
X73660000Y-86360000D03*
X73660000Y-83820000D03*
X73660000Y-81280000D03*
X73660000Y-78740000D03*
X73660000Y-76200000D03*
X73660000Y-73660000D03*
X73660000Y-71120000D03*
X73660000Y-68580000D03*
X88900000Y-68580000D03*
X88900000Y-71120000D03*
X88900000Y-73660000D03*
X88900000Y-76200000D03*
X88900000Y-78740000D03*
X88900000Y-81280000D03*
X88900000Y-83820000D03*
X88900000Y-86360000D03*
X88900000Y-88900000D03*
X88900000Y-91440000D03*
X88900000Y-93980000D03*
X88900000Y-96520000D03*
X88900000Y-99060000D03*
X88900000Y-101600000D03*
X88900000Y-104140000D03*
%TD*%
M02*
